<?xml version="1.0" encoding="UTF-8" standalone="no"?>
<svg
   xmlns:svg="http://www.w3.org/2000/svg"
   xmlns="http://www.w3.org/2000/svg"
   version="1.1"
   width="818.0249"
   height="228.9538"
   id="svg3226">
  <defs
     id="defs3228" />
  <g
     transform="translate(37.583864,-426.45671)"
     id="layer1">
    <path
       d="m 762.48598,636.72417 c 0.89755,0 1.43609,0.53853 1.79511,1.52584 l 0.62829,1.96682 c 1.97462,6.20875 2.95803,9.70142 2.95803,10.50922 0,0.71804 -0.89755,1.17463 -2.68877,1.44389 -1.79511,0.17561 -2.69266,0.52683 -2.69266,1.16293 0,0.53853 0.44487,0.8078 1.34243,0.8078 0.0937,0 0.99121,-0.0937 2.69657,-0.17561 1.70926,-0.0937 3.32096,-0.17561 5.02632,-0.17561 1.16682,0 2.4273,0.082 3.95315,0.17561 1.43609,0.082 2.4195,0.17561 2.96193,0.17561 1.35024,0 1.97463,-0.26927 1.97463,-0.90536 0,-0.25366 -0.71414,-0.62049 -2.15023,-0.98341 -1.43609,-0.35122 -2.51707,-1.35024 -3.14535,-2.95414 l -13.82628,-35.56275 c -0.26927,-0.72585 -0.63609,-1.07707 -1.08097,-1.07707 -0.62439,0 -0.99121,0.35122 -1.34633,1.07707 l -16.07407,35.29349 c -0.62829,1.35023 -1.70926,2.23999 -3.41462,2.87218 -1.6117,0.53853 -2.4234,1.08097 -2.4234,1.52584 0,0.44488 0.35902,0.71415 0.98731,0.71415 0.0937,0 0.72195,-0.0937 1.88877,-0.17561 1.16683,-0.0937 2.51706,-0.17561 4.22242,-0.17561 1.69755,0 3.13755,0.082 4.30827,0.17561 1.16683,0.082 1.88487,0.17561 2.06438,0.17561 1.07317,0 1.6117,-0.35122 1.6117,-0.98341 0,-0.46049 -0.8078,-0.90536 -2.50925,-1.16292 -1.70536,-0.28098 -2.51316,-0.90146 -2.51316,-1.90048 0,-1.15902 0.8078,-3.57462 2.33364,-7.27021 l 1.97463,-4.6712 c 0.44487,-0.98341 0.98731,-1.42828 1.6195,-1.42828 l 9.51801,0 z m -8.97947,-3.23901 c -0.17951,0 -0.27707,-0.082 -0.36293,-0.17561 0,-0.18732 0.36293,-1.25268 1.16683,-3.23511 l 3.05559,-7.81264 c 0.26927,-0.44488 0.44488,-0.63219 0.71414,-0.63219 0.26927,0 0.45268,0.28097 0.54244,0.72585 l 2.60291,7.54337 c 0.62829,1.71317 0.89756,2.87219 0.89756,3.32877 0,0.17561 -0.26927,0.25756 -0.71805,0.25756 l -7.89849,0 z m -35.00744,-14.17749 c 0,-1.17463 0.18341,-1.98243 0.63219,-2.42731 0.44878,-0.46048 1.25658,-0.72975 2.4234,-0.8117 2.06438,-0.17561 3.0556,-0.63219 3.0556,-1.34634 0,-0.62048 -0.45268,-0.98731 -1.26048,-0.98731 -0.44488,0 -1.6117,0.082 -3.41462,0.17561 -1.79511,0.0937 -3.31706,0.19122 -4.66729,0.19122 -1.16683,0 -2.69267,-0.0976 -4.39803,-0.19122 -1.70536,-0.0937 -2.78633,-0.17561 -3.32486,-0.17561 -0.8039,0 -1.25658,0.36683 -1.25658,0.98731 0,0.71415 0.98731,1.17073 3.05559,1.34634 1.70926,0.17561 2.50926,1.25658 2.50926,3.23901 l 0,29.27595 c 0,1.97072 -1.16683,3.04779 -3.58633,3.2234 -2.06438,0.18732 -3.05559,0.63219 -3.05559,1.35024 0,0.63219 0.35512,0.98341 1.07707,0.98341 0.98731,0 2.51706,-0.0937 4.49558,-0.17561 1.88097,-0.0937 3.31706,-0.17561 4.30828,-0.17561 1.07316,0 2.50925,0.082 4.31217,0.17561 1.70536,0.082 2.87218,0.17561 3.40291,0.17561 1.43999,0 2.16194,-0.26927 2.16194,-0.90536 0,-0.7961 -0.98731,-1.24097 -3.05559,-1.42829 -2.23999,-0.17561 -3.41462,-1.25268 -3.41462,-3.2234 l 0,-29.27595 z m -68.03401,-4.22281 c -0.35902,-0.63219 -0.8117,-0.98341 -1.25268,-0.98341 -2.51706,0 -4.76485,-0.0976 -6.82923,-0.19122 -1.97463,-0.0937 -2.96194,-0.17561 -3.0556,-0.17561 -1.16682,0 -1.70535,0.36683 -1.70535,0.98731 0,0.62049 0.90146,1.07707 2.69657,1.17073 2.60682,0.17561 3.95315,0.98731 3.95315,2.50926 0,0.26926 -0.17951,3.14535 -0.53853,8.43312 l -1.43609,21.30331 c -0.0937,1.77951 -0.99122,2.95414 -2.51706,3.39901 -0.99122,0.17561 -1.88878,0.36293 -2.78633,0.45659 -1.25268,0.1756 -1.88097,0.62048 -1.88097,1.24097 0,0.63609 0.35512,0.90536 1.07317,0.90536 0.45268,0 1.52974,-0.0937 3.2351,-0.17561 1.70926,-0.0937 3.32096,-0.17561 4.75705,-0.17561 1.16683,0 2.69657,0.082 4.49169,0.17561 1.79511,0.082 2.96193,0.17561 3.50047,0.17561 0.72195,0 1.08097,-0.26927 1.08097,-0.90536 0,-0.62049 -1.16682,-1.06537 -3.59803,-1.42829 -2.4195,-0.36293 -3.58633,-1.17463 -3.58633,-2.4156 l 0.0898,-24.15988 c 0,-1.53755 0.0859,-2.23999 0.35512,-2.23999 0.0937,0 0.53853,0.8078 1.35024,2.31804 l 13.65066,26.40377 c 0.35902,0.63219 0.62829,0.98341 0.8039,0.98341 0.26927,0 0.62829,-0.25366 0.89756,-0.88975 l 13.47115,-27.46913 c 0.44878,-0.90146 0.72195,-1.34634 0.8078,-1.34634 0.26927,0 0.35902,0.53853 0.35902,1.69755 l 0,24.42135 c 0,1.44389 -1.07316,2.33364 -3.14535,2.69657 -2.06438,0.36292 -3.13364,0.88975 -3.13364,1.52585 0,0.53853 0.62439,0.8078 1.96682,0.8078 0.54244,0 1.80292,-0.0937 3.68388,-0.17561 1.88878,-0.0937 3.32487,-0.17561 4.49169,-0.17561 0.98731,0 2.33365,0.082 4.12876,0.17561 1.79511,0.082 3.14535,0.17561 4.039,0.17561 1.17073,0 1.79512,-0.35122 1.79512,-0.98341 0,-0.6361 -0.44488,-0.98732 -1.42829,-1.08097 -0.90536,-0.082 -1.80292,-0.17561 -2.70047,-0.26927 -2.06438,-0.17561 -3.04779,-0.90536 -3.04779,-2.23999 l 0,-30.08375 c 0,-1.4439 0.26146,-2.33365 0.71414,-2.77853 0.44488,-0.46048 1.25658,-0.63609 2.4234,-0.63609 2.61072,0 3.8634,-0.35122 3.8634,-0.98341 0,-0.8078 -0.53854,-1.17463 -1.61951,-1.17463 -0.98341,0 -2.50925,0 -4.48388,-0.0937 -1.88877,-0.082 -3.32486,-0.082 -4.31217,-0.082 -1.07707,0 -2.15804,0.98731 -3.14145,2.96974 l -12.39018,24.78037 c -0.18342,0.52683 -0.36683,0.8117 -0.6361,0.8117 -0.1756,0 -0.44487,-0.28487 -0.71414,-0.8117 L 650.4651,615.08477 z m -53.60559,3.12974 c 0,-0.98341 0.26146,-1.6039 0.89756,-1.87706 0.89755,-0.44488 2.87218,-0.62049 6.01753,-0.62049 5.47509,0 9.42044,0.98731 11.85165,2.95413 0.71414,0.6361 1.25267,1.61951 1.79121,2.95804 0.35902,1.09267 0.8117,1.6156 1.25658,1.6156 0.45268,0 0.63609,-0.44488 0.63609,-1.33463 l 0,-6.56777 c 0,-1.06536 -0.8117,-1.6078 -2.33755,-1.6078 -1.07707,0 -3.50437,0.082 -7.18435,0.17561 -3.67998,0.0937 -7.00485,0.19122 -9.96678,0.19122 -2.96194,0 -5.93168,-0.0976 -8.88972,-0.19122 -2.96193,-0.0937 -4.58144,-0.17561 -5.03412,-0.17561 -0.89755,0 -1.34243,0.36683 -1.34243,1.08097 0,0.62049 0.98341,0.98341 2.87218,1.07707 0.98731,0 1.70926,0.35122 2.15414,0.98731 0.45268,0.8078 0.62829,2.14243 0.62829,4.22242 l 0,26.9267 c 0,2.25169 -1.16683,3.60193 -3.59023,3.77754 -0.8078,0.0937 -1.6195,0.18732 -2.42731,0.26927 -0.80389,0.0936 -1.16682,0.44487 -1.16682,1.08097 0,0.63219 0.53854,0.98341 1.61951,0.98341 0.44877,0 2.51315,-0.0937 6.28679,-0.17561 3.67999,-0.0937 7.0946,-0.17561 10.05654,-0.17561 3.50047,0 7.18436,0.082 11.03995,0.17561 3.86729,0.082 5.84192,0.17561 5.93167,0.17561 0.53854,0 0.98341,-0.90536 1.35024,-2.77853 0.8,-4.0351 1.25268,-6.4624 1.25268,-7.0946 0,-0.63609 -0.26927,-0.90536 -0.81171,-0.90536 -0.26926,0 -0.71414,0.55415 -1.25267,1.61951 -0.8078,1.6195 -1.43609,2.79023 -1.97463,3.60193 -1.52584,2.14243 -4.76485,3.2234 -9.87702,3.2234 -3.8634,0 -6.47021,-0.26927 -7.99216,-0.90536 -1.16682,-0.44488 -1.79511,-1.25268 -1.79511,-2.4117 l 0,-13.11603 c 0,-1.15902 0.8039,-1.69755 2.33365,-1.69755 l 7.00094,0 c 2.96193,0 4.94046,0.71414 5.83412,2.23999 0.54243,0.88975 0.89755,2.06047 1.26438,3.41071 0.17561,0.88975 0.53853,1.35024 0.8078,1.35024 0.62829,0 0.89756,-0.26927 0.89756,-0.90536 l 0,-6.64973 c 0,-1.15902 0.17561,-2.31803 0.17561,-3.41461 0.18341,-1.06536 0.18341,-1.68585 0.18341,-1.87317 0,-0.90536 -0.27317,-1.35023 -0.89756,-1.35023 -0.26926,0 -0.62829,0.53853 -1.08097,1.53755 -0.53853,1.16292 -1.08097,1.97072 -1.52584,2.32194 -1.16683,0.90146 -3.0556,1.35024 -5.65851,1.35024 l -6.82533,0 c -1.70536,0 -2.50926,-0.44878 -2.50926,-1.4439 l 0,-12.03506 z m -44.90437,5.03217 c 0,-2.95413 0.26927,-4.8429 0.89756,-5.4751 0.53854,-0.62438 2.07219,-0.98731 4.58144,-0.98731 4.49169,0 7.27802,1.08097 8.26143,3.23901 0.26926,0.79609 0.62828,1.71316 0.99121,2.50926 0.17561,0.63219 0.44488,0.90536 0.89756,0.90536 0.98341,0 1.43609,-1.98633 1.43609,-5.84192 l 0,-4.58925 c -0.0937,-0.70244 -0.26927,-1.06536 -0.72195,-1.06536 -0.26927,0 -0.62439,0.26927 -0.98341,0.79609 -0.26927,0.46049 -0.62829,0.8078 -0.99122,0.99902 -1.43609,0.71415 -3.68388,1.07707 -6.64582,1.07707 l -22.98915,0 c -0.98341,0 -1.97463,-0.53853 -2.95804,-1.69755 -0.89755,-1.17463 -1.43999,-1.71316 -1.6195,-1.71316 -0.62829,0 -1.52585,1.71316 -2.60682,5.01851 -1.43609,4.39802 -2.15023,6.56777 -2.15023,6.64972 0,0.62049 0.35902,0.90536 0.98341,0.90536 0.45268,0 1.08097,-0.63609 1.89267,-1.88877 0.98341,-1.52585 2.15024,-2.70047 3.31706,-3.41462 1.97462,-1.25267 4.58144,-1.88877 7.81264,-1.88877 1.97463,0 3.23511,0.6361 3.67999,1.88877 0.18341,0.53854 0.26926,2.06438 0.26926,4.57364 l 0,24.60866 c 0,1.71316 -0.62438,2.77852 -1.88096,3.41071 -0.53854,0.26927 -1.70536,0.44488 -3.59413,0.72976 -1.25658,0.17561 -1.88097,0.52682 -1.88097,1.15902 0,0.63609 0.44488,0.98731 1.25268,0.98731 1.08097,0 2.69267,-0.0976 4.85071,-0.17561 2.06438,-0.0976 3.68388,-0.17561 4.75705,-0.17561 1.07706,0 2.69657,0.078 4.8468,0.17561 2.06438,0.0781 3.68389,0.17561 4.76486,0.17561 0.98341,0 1.43609,-0.27317 1.43609,-0.90536 0,-0.71415 -1.35024,-1.15902 -3.95315,-1.42829 -2.60292,-0.27317 -3.95316,-1.52585 -3.95316,-3.95315 l 0,-24.60866 z m -53.87524,13.4774 c 0.89755,0 1.43609,0.53853 1.79511,1.52584 l 0.62829,1.96682 c 1.97462,6.20875 2.96584,9.70142 2.96584,10.50922 0,0.71804 -0.90536,1.17463 -2.69657,1.44389 -1.79512,0.17561 -2.69267,0.52683 -2.69267,1.16293 0,0.53853 0.44487,0.8078 1.34243,0.8078 0.0937,0 0.99121,-0.0937 2.69657,-0.17561 1.70926,-0.0937 3.32096,-0.17561 5.02632,-0.17561 1.16682,0 2.4273,0.082 3.95315,0.17561 1.43609,0.082 2.4195,0.17561 2.96194,0.17561 1.35023,0 1.97462,-0.26927 1.97462,-0.90536 0,-0.25366 -0.71414,-0.62049 -2.15023,-0.98341 -1.43609,-0.35122 -2.51706,-1.35024 -3.14535,-2.95414 l -13.82628,-35.56275 c -0.26926,-0.72585 -0.62829,-1.07707 -1.08097,-1.07707 -0.62438,0 -0.98341,0.35122 -1.34633,1.07707 l -16.07407,35.29349 c -0.62829,1.35023 -1.70926,2.23999 -3.41462,2.87218 -1.6117,0.53853 -2.4234,1.08097 -2.4234,1.52584 0,0.44488 0.35902,0.71415 0.98731,0.71415 0.0937,0 0.72195,-0.0937 1.88877,-0.17561 1.16683,-0.0937 2.51706,-0.17561 4.22242,-0.17561 1.70536,0 3.14145,0.082 4.30827,0.17561 1.16683,0.082 1.88487,0.17561 2.06438,0.17561 1.08097,0 1.61951,-0.35122 1.61951,-0.98341 0,-0.46049 -0.8078,-0.90536 -2.51706,-1.16292 -1.70536,-0.28098 -2.51316,-0.90146 -2.51316,-1.90048 0,-1.15902 0.8078,-3.57462 2.33365,-7.27021 l 1.97462,-4.6712 c 0.45268,-0.98341 0.98731,-1.42828 1.6195,-1.42828 l 9.51801,0 z m -8.97947,-3.23901 c -0.17951,0 -0.26927,-0.082 -0.36293,-0.17561 0,-0.18732 0.36293,-1.25268 1.16683,-3.23511 l 3.05559,-7.81264 c 0.26927,-0.44488 0.44488,-0.63219 0.71414,-0.63219 0.26927,0 0.45269,0.28097 0.54244,0.72585 l 2.60291,7.54337 c 0.6322,1.71317 0.90146,2.87219 0.90146,3.32877 0,0.17561 -0.26926,0.25756 -0.72194,0.25756 l -7.8985,0 z m -59.58761,-14.00188 c 0,-2.2517 0.8078,-3.41462 2.51706,-3.41462 2.06438,0 3.04779,-0.45658 3.04779,-1.25268 0,-0.71414 -0.44488,-1.08097 -1.34243,-1.08097 -0.18342,0 -0.99122,0.082 -2.42731,0.17561 -1.34243,0.0937 -2.87218,0.19122 -4.58144,0.19122 -1.79511,0 -3.50047,-0.0976 -5.02632,-0.19122 -1.52194,-0.0937 -2.4273,-0.17561 -2.60291,-0.17561 -1.16682,0 -1.70536,0.36683 -1.70536,1.17463 0,0.62048 0.71414,0.98341 2.06438,1.06536 2.24389,0.0937 3.41072,1.25658 3.41072,3.33267 l 0,29.27595 c 0,1.97072 -1.16683,3.04779 -3.41072,3.2234 -1.70536,0.0937 -2.51706,0.53853 -2.51706,1.35024 0,0.63219 0.45268,0.98341 1.26048,0.98341 0.71415,0 1.97853,-0.0937 3.8595,-0.17561 1.79511,-0.0937 3.2312,-0.17561 4.22241,-0.17561 1.07317,0 2.51706,0.082 4.21462,0.17561 1.70926,0.082 2.78633,0.17561 3.41461,0.17561 1.16683,0 1.70536,-0.35122 1.70536,-0.98341 0,-0.6361 -0.8078,-0.98732 -2.4195,-1.16292 -1.35024,-0.18732 -2.24779,-0.45659 -2.70047,-0.8078 -0.62439,-0.72976 -0.98341,-2.07609 -0.98341,-4.14047 l 0,-11.75019 c 0,-0.72975 0.35902,-1.08097 0.98341,-1.08097 0.18341,0 0.63609,0.35122 1.35023,0.98341 l 12.74921,11.49653 c 2.34145,2.06438 3.50828,3.50828 3.50828,4.20681 0,0.63609 -0.81171,0.90536 -2.33365,0.90536 -1.53365,0.0937 -2.24779,0.53853 -2.24779,1.35024 0,0.63219 0.44487,0.98341 1.25657,0.98341 0.17952,0 1.07707,-0.0937 2.78633,-0.17561 1.6117,-0.0937 3.31706,-0.17561 5.02242,-0.17561 1.26438,0 2.78632,0.082 4.49168,0.17561 1.70926,0.082 2.78633,0.17561 3.23121,0.17561 1.17072,0 1.70926,-0.26927 1.70926,-0.8078 0,-0.35122 -0.71415,-0.98732 -2.06438,-1.79512 -2.06438,-1.33462 -4.13657,-2.77852 -5.92778,-4.49168 L 436.69713,630.9759 c -0.35902,-0.35122 -0.53853,-0.63219 -0.53853,-0.72585 0,-0.082 0.17951,-0.35122 0.53853,-0.71414 l 15.35212,-11.49653 c 1.35024,-0.98341 2.96974,-1.70145 4.6751,-2.06438 1.70536,-0.25756 2.60292,-0.71414 2.60292,-1.15902 0,-0.71414 -0.53854,-1.08097 -1.61951,-1.08097 -0.26927,0 -1.07707,0.082 -2.51316,0.17561 -1.43999,0.0937 -2.87608,0.19122 -4.31217,0.19122 -1.07317,0 -2.4234,-0.0976 -4.03901,-0.19122 -1.52584,-0.0937 -2.60681,-0.17561 -3.2312,-0.17561 -1.25658,0 -1.88877,0.36683 -1.88877,1.17463 0,0.70244 0.90146,1.06536 2.69657,1.06536 1.79511,0.0937 2.69267,0.36293 2.69267,0.98731 0,0.45659 -1.16682,1.70926 -3.59022,3.67998 l -12.12092,10.16191 c -0.8078,0.71414 -1.35024,1.06536 -1.43609,1.06536 -0.26927,0 -0.45268,-0.35122 -0.45268,-1.06536 l 0,-11.32092 z m -43.2513,27.21079 c 0.35902,1.15902 0.53853,1.97072 0.53853,2.23999 0,1.35024 -0.72195,2.07609 -2.24389,2.33365 -3.32486,0.53853 -5.03412,1.17462 -5.03412,1.88877 0,0.63219 0.45268,0.98341 1.26048,0.98341 1.17073,0 2.87608,-0.0937 5.11997,-0.17561 2.15414,-0.0937 3.77364,-0.17561 4.85071,-0.17561 1.16292,0 2.87609,0.0819 5.11217,0.17561 2.2478,0.082 3.95315,0.17561 5.30339,0.17561 1.16683,0 1.79511,-0.35122 1.79511,-1.07707 0,-0.54244 -0.35902,-0.88975 -1.16682,-1.16292 -0.99121,-0.18732 -1.97853,-0.36293 -2.96194,-0.63219 -1.80291,-0.53854 -3.32486,-2.68487 -4.67509,-6.46241 l -16.70236,-47.67587 c -0.17561,-0.46048 -0.44488,-0.63609 -1.07317,-0.63609 -0.44878,0 -0.72194,0.17561 -0.90146,0.54244 l -22.8994,51.99194 c -0.44877,0.98341 -1.34243,1.79511 -2.69267,2.23999 -0.0898,0.0936 -1.16682,0.26926 -3.14144,0.72975 -0.98732,0.17561 -1.43609,0.62048 -1.43609,1.06536 0,0.72585 0.35902,1.07707 1.07706,1.07707 0.98732,0 2.69267,-0.0937 4.93656,-0.17561 2.2478,-0.0937 3.8634,-0.17561 5.03022,-0.17561 0.89756,0 2.2439,0.0819 4.04291,0.17561 1.79511,0.082 3.05169,0.17561 3.85949,0.17561 1.34634,0 2.06438,-0.35122 2.06438,-1.07707 0,-0.44488 -1.52584,-0.98731 -4.57753,-1.79511 -1.70926,-0.44488 -2.60682,-1.35024 -2.60682,-2.68487 0,-0.55414 0.8078,-3.15706 2.4273,-7.82435 1.61561,-4.57364 2.96194,-7.89069 3.94925,-9.95507 0.35903,-0.72976 2.96584,-1.09268 7.9024,-0.98732 3.76974,0.082 6.01754,0.17561 6.82534,0.43317 0.71414,0.18732 1.25658,0.8078 1.6117,1.88877 l 4.40583,14.55603 z M 373.41861,609.3362 c 0.0859,-0.26926 0.26927,-0.45658 0.45268,-0.45658 0.17561,0 0.35512,0.18732 0.53854,0.55414 l 4.75705,14.1775 c 0.26927,0.88975 0.44878,1.42828 0.44878,1.70145 0,0.36293 -2.06048,0.53853 -6.2868,0.53853 -4.30827,0 -6.46241,-0.1756 -6.46241,-0.44487 0,-0.26927 0.17951,-0.79609 0.53463,-1.6078 l 6.01753,-14.46237 z M 264.433,614.99042 c -0.62829,-0.63219 -1.79511,-0.88975 -3.50047,-0.88975 -1.25658,0 -2.87218,-0.0937 -4.93656,-0.18732 -1.97853,-0.0976 -3.14535,-0.17561 -3.59413,-0.17561 -0.90146,0 -1.35024,0.36293 -1.35024,0.98341 0,0.53854 0.90146,0.88975 2.78633,1.07707 3.0556,0.27317 4.58144,1.97072 4.58144,5.12778 l 0,20.81551 c 0,4.95217 -0.35902,7.99996 -1.17072,9.16288 -0.26537,0.45658 -1.34634,0.72585 -3.13755,0.99902 -1.79901,0.26927 -2.69657,0.71414 -2.69657,1.33463 0,0.63219 0.44878,0.90146 1.34633,0.90146 0.26927,0 1.25658,-0.0937 2.96584,-0.17561 1.6156,-0.0937 3.14145,-0.17561 4.6673,-0.17561 1.34633,0 2.87218,0.082 4.57754,0.17561 1.70926,0.082 2.69657,0.17561 3.14535,0.17561 0.98731,0 1.43609,-0.35122 1.43609,-0.98341 0,-0.6361 -1.43609,-1.15902 -4.21852,-1.35024 -1.70926,-0.17561 -2.87608,-0.62049 -3.32486,-1.6039 -0.62829,-1.17462 -0.89756,-4.0468 -0.89756,-8.46044 l 0,-16.69846 c 0,-2.14633 0.17951,-3.2273 0.53854,-3.2273 0.0897,0 0.35902,0.17561 0.8078,0.62049 l 30.8018,31.87887 c 0.62829,0.63609 1.07707,0.90536 1.52584,0.90536 0.44878,0 0.62829,-0.26927 0.62829,-0.8078 0,0 0,-0.44878 -0.0898,-1.35024 -0.0898,-0.81171 -0.0898,-1.70146 -0.0898,-2.68487 l 0,-30.54424 c 0,-1.33462 0.26927,-2.31803 0.89756,-2.95413 0.63219,-0.63219 1.70536,-0.98341 3.41462,-1.15902 1.43609,-0.19122 2.15413,-0.55414 2.15413,-1.09268 0,-0.62048 -0.53853,-0.88975 -1.70536,-0.88975 -0.44877,0 -1.34633,0.0781 -2.69657,0.17561 -1.25658,0.0937 -2.4234,0.18732 -3.59022,0.18732 -1.16683,0 -2.60292,-0.0937 -4.21852,-0.18732 -1.52975,-0.0976 -2.51706,-0.17561 -2.96584,-0.17561 -0.89756,0 -1.34633,0.26927 -1.34633,0.88975 0,0.45659 0.35902,0.80781 1.07706,0.98341 0.26927,0.10927 1.43609,0.28488 3.32096,0.53854 1.25658,0.19122 2.06829,0.46048 2.42341,0.90536 0.36292,0.36292 0.54243,1.26829 0.54243,2.60291 l 0,22.81355 c 0,0.63219 -0.0937,0.88975 -0.35902,0.88975 -0.18341,0 -0.35902,-0.17561 -0.71805,-0.53853 l -27.03206,-27.83206 z m -52.17223,3.22418 c 0,-0.98341 0.26927,-1.6039 0.90146,-1.87706 0.89755,-0.44488 2.87218,-0.62049 6.01363,-0.62049 5.47899,0 9.42824,0.98731 11.85555,2.95413 0.71804,0.6361 1.25658,1.61951 1.79121,2.95804 0.36292,1.09267 0.8117,1.6156 1.26048,1.6156 0.44878,0 0.62829,-0.44488 0.62829,-1.33463 l 0,-6.56777 c 0,-1.06536 -0.8078,-1.6078 -2.33755,-1.6078 -1.07316,0 -3.50047,0.082 -7.18045,0.17561 -3.67998,0.0937 -7.00484,0.19122 -9.96678,0.19122 -2.96584,0 -5.92778,-0.0976 -8.88971,-0.19122 -2.96194,-0.0937 -4.58145,-0.17561 -5.03022,-0.17561 -0.89756,0 -1.34634,0.36683 -1.34634,1.08097 0,0.62049 0.98731,0.98341 2.87218,1.07707 0.99122,0 1.70926,0.35122 2.15804,0.98731 0.44878,0.8078 0.62439,2.14243 0.62439,4.22242 l 0,26.9267 c 0,2.25169 -1.16683,3.60193 -3.59023,3.77754 -0.8078,0.0937 -1.6156,0.18732 -2.4234,0.26927 -0.8078,0.0936 -1.17073,0.44487 -1.17073,1.08097 0,0.63219 0.54244,0.98341 1.6156,0.98341 0.45269,0 2.51707,-0.0937 6.29071,-0.17561 3.67998,-0.0937 7.0946,-0.17561 10.05653,-0.17561 3.50047,0 7.18436,0.082 11.04385,0.17561 3.8634,0.082 5.83802,0.17561 5.92778,0.17561 0.53853,0 0.98731,-0.90536 1.34633,-2.77853 0.8078,-4.0351 1.25658,-6.4624 1.25658,-7.0946 0,-0.63609 -0.26927,-0.90536 -0.8078,-0.90536 -0.26927,0 -0.71805,0.55415 -1.25658,1.61951 -0.8078,1.6195 -1.43609,2.79023 -1.97462,3.60193 -1.52585,2.14243 -4.76096,3.2234 -9.87703,3.2234 -3.86339,0 -6.47021,-0.26927 -7.99216,-0.90536 -1.16682,-0.44488 -1.79901,-1.25268 -1.79901,-2.4117 l 0,-13.11603 c 0,-1.15902 0.8078,-1.69755 2.33755,-1.69755 l 7.00484,0 c 2.96194,0 4.93656,0.71414 5.83412,2.23999 0.53853,0.88975 0.89756,2.06047 1.26048,3.41071 0.17561,0.88975 0.53854,1.35024 0.8039,1.35024 0.63219,0 0.90146,-0.26927 0.90146,-0.90536 l 0,-6.64973 c 0,-1.15902 0.17951,-2.31803 0.17951,-3.41461 0.17561,-1.06536 0.17561,-1.68585 0.17561,-1.87317 0,-0.90536 -0.26927,-1.35023 -0.89756,-1.35023 -0.26926,0 -0.62438,0.53853 -1.07706,1.53755 -0.53464,1.16292 -1.07707,1.97072 -1.52585,2.32194 -1.16682,0.90146 -3.0556,1.35024 -5.65461,1.35024 l -6.82533,0 c -1.70926,0 -2.51706,-0.44878 -2.51706,-1.4439 l 0,-12.03506 z m -69.11385,-3.12974 c -0.35902,-0.63219 -0.8078,-0.98341 -1.25658,-0.98341 -2.51316,0 -4.76095,-0.0976 -6.82533,-0.19122 -1.97462,-0.0937 -2.96194,-0.17561 -3.05169,-0.17561 -1.17073,0 -1.70536,0.36683 -1.70536,0.98731 0,0.62049 0.89756,1.07707 2.68877,1.17073 2.61072,0.17561 3.95315,0.98731 3.95315,2.50926 0,0.26926 -0.17561,3.14535 -0.53853,8.43312 l -1.43609,21.30331 c -0.0898,1.77951 -0.98732,2.95414 -2.51316,3.39901 -0.98732,0.17561 -1.88487,0.36293 -2.78633,0.45659 -1.25268,0.1756 -1.88487,0.62048 -1.88487,1.24097 0,0.63609 0.36293,0.90536 1.08097,0.90536 0.44878,0 1.52194,-0.0937 3.2312,-0.17561 1.70536,-0.0937 3.32096,-0.17561 4.75705,-0.17561 1.17073,0 2.69658,0.082 4.49169,0.17561 1.79511,0.082 2.96194,0.17561 3.50047,0.17561 0.71805,0 1.07707,-0.26927 1.07707,-0.90536 0,-0.62049 -1.16683,-1.06537 -3.59023,-1.42829 -2.4234,-0.36293 -3.59413,-1.17463 -3.59413,-2.4156 l 0.0937,-24.15988 c 0,-1.53755 0.0898,-2.23999 0.35902,-2.23999 0.0859,0 0.53464,0.8078 1.34634,2.31804 l 13.64676,26.40377 c 0.35902,0.63219 0.62829,0.98341 0.8117,0.98341 0.26927,0 0.62829,-0.25366 0.89756,-0.88975 l 13.47115,-27.46913 c 0.44878,-0.90146 0.71805,-1.34634 0.8039,-1.34634 0.26927,0 0.36293,0.53853 0.36293,1.69755 l 0,24.42135 c 0,1.44389 -1.08097,2.33364 -3.14535,2.69657 -2.06829,0.36292 -3.14145,0.88975 -3.14145,1.52585 0,0.53853 0.62439,0.8078 1.97462,0.8078 0.53854,0 1.79512,-0.0937 3.67999,-0.17561 1.88486,-0.0937 3.32096,-0.17561 4.49168,-0.17561 0.98731,0 2.33365,0.082 4.12876,0.17561 1.79902,0.082 3.14535,0.17561 4.04291,0.17561 1.16682,0 1.79511,-0.35122 1.79511,-0.98341 0,-0.6361 -0.44878,-0.98732 -1.43609,-1.08097 -0.89756,-0.082 -1.79901,-0.17561 -2.69657,-0.26927 -2.06438,-0.17561 -3.05169,-0.90536 -3.05169,-2.23999 l 0,-30.08375 c 0,-1.4439 0.26926,-2.33365 0.71804,-2.77853 0.44878,-0.46048 1.26048,-0.63609 2.42731,-0.63609 2.60291,0 3.85949,-0.35122 3.85949,-0.98341 0,-0.8078 -0.53853,-1.17463 -1.6156,-1.17463 -0.98731,0 -2.51316,0 -4.49169,-0.0937 -1.88487,-0.082 -3.32096,-0.082 -4.30827,-0.082 -1.07707,0 -2.15804,0.98731 -3.14535,2.96974 l -12.39018,24.78037 c -0.17951,0.52683 -0.35902,0.8117 -0.62829,0.8117 -0.18342,0 -0.44878,-0.28487 -0.71805,-0.8117 L 143.14696,615.08477 z M 69.821226,633.9316 c 0,6.11118 2.06829,11.23896 6.2868,15.27016 4.22242,4.03511 9.518,6.01754 15.98431,6.01754 6.55607,0 11.945314,-2.06438 16.253584,-6.11119 4.22242,-3.93755 6.37656,-9.06533 6.37656,-15.17651 0,-6.09949 -2.15414,-11.21166 -6.37656,-15.25847 -4.22242,-4.04681 -9.428244,-6.01753 -15.715044,-6.01753 -6.73558,0 -12.21067,1.97072 -16.43309,6.01753 -4.22242,4.04681 -6.37656,9.06532 -6.37656,15.25847 m 7.9024,0 c 0,-5.90827 1.43609,-10.59117 4.40193,-14.09945 2.69267,-3.2234 6.19314,-4.8429 10.50532,-4.8429 4.21851,0 7.633134,1.6195 10.325804,4.8429 2.87608,3.41462 4.22242,8.19118 4.22242,14.09945 0,12.66725 -5.03022,18.95405 -15.086764,18.95405 -4.66729,0 -8.26142,-1.61951 -10.68482,-4.93656 -2.42731,-3.2234 -3.68389,-7.90631 -3.68389,-14.01749 m -60.482393,8.18922 c 0,4.39803 1.256579,7.52777 3.863396,9.59215 2.872181,2.33365 7.539475,3.50828 14.095541,3.50828 10.150194,0 15.266266,-5.39705 15.266266,-16.16383 l 0,-19.036 c 0,-1.43999 0.538534,-2.50926 1.619504,-3.23511 0.448779,-0.25756 1.346335,-0.71804 2.868279,-1.17463 1.08097,-0.35121 1.619504,-0.70243 1.619504,-1.15901 0,-0.44878 -0.359022,-0.71805 -1.08097,-0.71805 -0.624387,0 -1.43609,0.082 -2.602914,0.17561 -1.166824,0.0937 -2.423403,0.19122 -3.769738,0.19122 -0.811703,0 -1.884868,-0.0976 -3.320959,-0.19122 -1.350237,-0.0937 -2.247794,-0.17561 -2.606816,-0.17561 -0.987313,0 -1.525847,0.36683 -1.525847,0.98731 0,0.44488 0.62829,0.8078 1.974625,1.07707 2.782425,0.62049 4.132662,2.06438 4.132662,4.22242 l 0,16.70236 c 0,5.83021 -0.987312,9.87702 -2.965839,12.30433 -1.884868,2.33364 -5.026316,3.49266 -9.248735,3.49266 -4.218516,0 -7.180452,-0.98341 -8.979468,-2.95413 -1.795113,-1.88877 -2.69267,-5.20583 -2.69267,-9.79507 l 0,-21.36965 c 0,-1.17073 1.256579,-1.98243 3.859494,-2.42731 1.709259,-0.25756 2.602914,-0.71414 2.602914,-1.35024 0,-0.62048 -0.534632,-0.88975 -1.521944,-0.88975 -0.632192,0 -1.884869,0.082 -3.594129,0.17561 -1.705357,0.0937 -2.961937,0.19122 -3.953151,0.19122 -0.893654,0 -2.243892,-0.0976 -4.12876,-0.19122 -1.795114,-0.0937 -3.141449,-0.17561 -4.042907,-0.17561 -0.987313,0 -1.436091,0.26927 -1.436091,0.88975 0,0.46049 0.901459,0.81171 2.786328,1.09268 1.884869,0.25756 2.782425,1.16292 2.782425,2.68487 l 0,23.7189 z M -7.2347436,603.76589 c 0,-1.88877 -0.269267,-3.04779 -0.901459,-3.68389 -0.803899,-0.71414 -2.7824264,-1.44389 -6.0136304,-2.06438 -1.525846,-0.26926 -3.141448,-0.44487 -4.846805,-0.44487 -5.393144,0 -9.701415,1.52585 -12.753108,4.66729 -2.876083,2.87609 -4.218516,6.38436 -4.218516,10.41556 0,4.85851 2.333647,8.97167 7.000942,12.38628 4.308271,2.52097 8.620445,5.03022 12.932619,7.63704 4.667294,2.87218 7.0009414,6.28289 7.0009414,9.96678 0,2.60291 -0.893654,4.76485 -2.7824254,6.55606 -2.154136,2.06438 -5.205829,3.14535 -9.15898,3.14535 -5.119975,0 -8.979468,-2.25169 -11.492626,-6.81362 -0.897557,-1.6195 -1.439993,-3.51998 -1.70926,-5.66631 -0.08585,-1.26829 -0.534632,-1.88878 -1.346335,-1.88878 -1.342432,0 -2.060478,2.60292 -2.060478,7.81265 0,2.79023 0.444876,4.76095 1.252677,5.84192 0.807801,0.98341 2.517061,1.79121 5.299486,2.4117 4.308272,0.90536 7.184355,1.36584 8.710201,1.36584 5.748265,0 10.236048,-1.36584 13.6506654,-4.05071 3.679982,-2.87218 5.564851,-7.0946 5.564851,-12.65164 0,-5.30339 -2.333647,-9.61947 -7.0009414,-13.03409 -4.312174,-2.4273 -8.620446,-4.85461 -12.93262,-7.35215 -4.671196,-2.71219 -7.004843,-5.84193 -7.004843,-9.3502 0,-2.42731 0.718045,-4.31608 2.247794,-5.83802 1.701454,-1.70146 4.218515,-2.50926 7.539474,-2.50926 3.594129,0 6.197043,0.99512 7.902401,2.96584 0.987312,1.06536 1.884868,2.86047 2.5170604,5.38144 0.534632,1.97072 1.166824,2.96974 1.795114,2.96974 0.538534,0 0.807801,-0.26927 0.807801,-0.71414 l 0,-7.46143 z"
       id="path116"
       style="fill:#000000;fill-opacity:1;fill-rule:nonzero;stroke:none" />
    <path
       d="m 330.84474,563.5097 -45.28369,0 80.72156,-137.05299 43.43393,67.49626 c -36.59689,8.27313 -66.25138,34.82519 -78.8718,69.55673 m 123.62596,0 -114.20822,0 c 12.5736,-31.4418 40.52273,-55.08266 74.54403,-61.63872 l 39.66419,61.63872 z"
       id="path124"
       style="fill:#15569c;fill-opacity:1;fill-rule:nonzero;stroke:none" />
  </g>
</svg>
