<?xml version="1.0" encoding="UTF-8" standalone="no"?>
<svg
   xmlns:dc="http://purl.org/dc/elements/1.1/"
   xmlns:cc="http://creativecommons.org/ns#"
   xmlns:rdf="http://www.w3.org/1999/02/22-rdf-syntax-ns#"
   xmlns:svg="http://www.w3.org/2000/svg"
   xmlns="http://www.w3.org/2000/svg"
   xmlns:sodipodi="http://sodipodi.sourceforge.net/DTD/sodipodi-0.dtd"
   xmlns:inkscape="http://www.inkscape.org/namespaces/inkscape"
   version="1.1"
   id="Layer_1"
   x="0px"
   y="0px"
   width="1148px"
   height="1148px"
   viewBox="0 0 1148 1148"
   enable-background="new 0 0 1148 1148"
   xml:space="preserve"
   sodipodi:docname="qr-code.svg"
   inkscape:version="1.0.2 (e86c870879, 2021-01-15)"><metadata
   id="metadata3725"><rdf:RDF><cc:Work
       rdf:about=""><dc:format>image/svg+xml</dc:format><dc:type
         rdf:resource="http://purl.org/dc/dcmitype/StillImage" /><dc:title></dc:title></cc:Work></rdf:RDF></metadata><defs
   id="defs3723">

















































































































































































































































































































































































































































































































































































































































































































































































































































































































































































































































































































































































































































































</defs><sodipodi:namedview
   pagecolor="#ffffff"
   bordercolor="#666666"
   borderopacity="1"
   objecttolerance="10"
   gridtolerance="10"
   guidetolerance="10"
   inkscape:pageopacity="0"
   inkscape:pageshadow="2"
   inkscape:window-width="1366"
   inkscape:window-height="704"
   id="namedview3721"
   showgrid="false"
   inkscape:pagecheckerboard="true"
   inkscape:zoom="0.43554007"
   inkscape:cx="540.708"
   inkscape:cy="574"
   inkscape:window-x="0"
   inkscape:window-y="0"
   inkscape:window-maximized="1"
   inkscape:current-layer="Layer_1" />
<g
   id="g3674"
   style="fill:#000000"
   transform="matrix(1.96,0,0,1.96,56,56)">
	<rect
   x="15"
   y="15"
   style="fill:none"
   width="70"
   height="70"
   id="rect3670" />
	
</g><g
   id="g3684"
   style="fill:#000000"
   transform="matrix(1.96,0,0,1.96,896,56)">
	<rect
   x="15"
   y="15"
   style="fill:none"
   width="70"
   height="70"
   id="rect3680" />
	
</g><g
   id="g3694"
   style="fill:#000000"
   transform="matrix(1.96,0,0,1.96,56,896)">
	<rect
   x="15"
   y="15"
   style="fill:none"
   width="70"
   height="70"
   id="rect3690" />
	
</g><path
   id="rect3712"
   style="fill:#000000;stroke-width:0.84"
   d="m 112,952 h 84 v 84 H 112 Z M 952,112 h 84 v 84 h -84 z m -840,0 h 84 v 84 H 112 Z M 222.6,896 H 85.4 56 v 29.4 137.2 29.4 H 85.4 222.6 252 V 1062.6 925.4 896 Z m 0,166.6 H 85.4 V 925.4 H 222.6 Z M 1062.6,56 H 925.4 896 V 85.4 222.6 252 h 29.4 137.2 29.4 V 222.6 85.4 56 Z m 0,166.6 H 925.4 V 85.4 h 137.2 z M 222.6,56 H 85.4 56 V 85.4 222.6 252 H 85.4 222.6 252 V 222.6 85.4 56 Z m 0,166.6 H 85.4 V 85.4 H 222.6 Z M 1064,1064 h 28 v 28 h -28 z m -28,0 h 28 v 28 h -28 z m -28,0 h 28 v 28 h -28 z m -28,0 h 28 v 28 h -28 z m -28,0 h 28 v 28 h -28 z m -56,0 h 28 v 28 h -28 z m -28,0 h 28 v 28 h -28 z m -84,0 h 28 v 28 h -28 z m -28,0 h 28 v 28 h -28 z m -28,0 h 28 v 28 h -28 z m -28,0 h 28 v 28 h -28 z m -28,0 h 28 v 28 h -28 z m -84,0 h 28 v 28 h -28 z m -56,0 h 28 v 28 h -28 z m -28,0 h 28 v 28 h -28 z m -28,0 h 28 v 28 h -28 z m -112,0 h 28 v 28 h -28 z m -56,0 h 28 v 28 h -28 z m -28,0 h 28 v 28 h -28 z m 784,-28 h 28 v 28 h -28 z m -112,0 h 28 v 28 h -28 z m -112,0 h 28 v 28 h -28 z m -56,0 h 28 v 28 h -28 z m -84,0 h 28 v 28 h -28 z m -56,0 h 28 v 28 h -28 z m -28,0 h 28 v 28 h -28 z m -28,0 h 28 v 28 h -28 z m -112,0 h 28 v 28 h -28 z m -28,0 h 28 v 28 h -28 z m -112,0 h 28 v 28 h -28 z m -28,0 h 28 v 28 h -28 z m 756,-28 h 28 v 28 h -28 z m -28,0 h 28 v 28 h -28 z m -56,0 h 28 v 28 h -28 z m -140,0 h 28 v 28 h -28 z m -28,0 h 28 v 28 h -28 z m -168,0 h 28 v 28 h -28 z m -56,0 h 28 v 28 h -28 z m -28,0 h 28 v 28 h -28 z m -56,0 h 28 v 28 h -28 z m -28,0 h 28 v 28 h -28 z m -28,0 h 28 v 28 h -28 z m -56,0 h 28 v 28 h -28 z m -112,0 h 28 v 28 h -28 z m 784,-28 h 28 v 28 h -28 z m -84,0 h 28 v 28 h -28 z m -28,0 h 28 v 28 h -28 z m -56,0 h 28 v 28 h -28 z m -28,0 h 28 v 28 h -28 z m -56,0 h 28 v 28 h -28 z m -56,0 h 28 v 28 h -28 z m -56,0 h 28 v 28 h -28 z m -56,0 h 28 v 28 h -28 z m -28,0 h 28 v 28 h -28 z m -56,0 h 28 v 28 h -28 z m -84,0 h 28 v 28 h -28 z m -112,0 h 28 v 28 h -28 z m -56,0 h 28 v 28 h -28 z m -28,0 h 28 v 28 h -28 z m 784,-28 h 28 v 28 h -28 z m -56,0 h 28 v 28 h -28 z m -56,0 h 28 v 28 h -28 z m -28,0 h 28 v 28 h -28 z m -28,0 h 28 v 28 h -28 z m -28,0 h 28 v 28 h -28 z m -28,0 h 28 v 28 h -28 z m -28,0 h 28 v 28 h -28 z m -28,0 h 28 v 28 h -28 z m -28,0 h 28 v 28 h -28 z m -28,0 h 28 v 28 h -28 z m -28,0 h 28 v 28 h -28 z m -56,0 h 28 v 28 h -28 z m -56,0 h 28 v 28 h -28 z m -84,0 h 28 v 28 h -28 z m -28,0 h 28 v 28 h -28 z m -28,0 h 28 v 28 h -28 z m -56,0 h 28 v 28 h -28 z m -28,0 h 28 v 28 h -28 z m -28,0 h 28 v 28 h -28 z m -56,0 h 28 v 28 h -28 z m 784,-28 h 28 v 28 h -28 z m -28,0 h 28 v 28 h -28 z m -56,0 h 28 v 28 h -28 z m -28,0 h 28 v 28 h -28 z m -112,0 h 28 v 28 h -28 z m -140,0 h 28 v 28 h -28 z m -56,0 h 28 v 28 h -28 z m -28,0 h 28 v 28 h -28 z m -28,0 h 28 v 28 h -28 z m -28,0 h 28 v 28 h -28 z m -28,0 h 28 v 28 h -28 z m -28,0 h 28 v 28 h -28 z m -56,0 h 28 v 28 h -28 z m -140,0 h 28 v 28 h -28 z m -28,0 h 28 v 28 h -28 z m 784,-28 h 28 v 28 h -28 z m -28,0 h 28 v 28 h -28 z m -28,0 h 28 v 28 h -28 z m -56,0 h 28 v 28 h -28 z m -56,0 h 28 v 28 h -28 z m -56,0 h 28 v 28 h -28 z m -84,0 h 28 v 28 h -28 z m -84,0 h 28 v 28 h -28 z m -56,0 h 28 v 28 h -28 z m -84,0 h 28 v 28 h -28 z m -28,0 h 28 v 28 h -28 z m -28,0 h 28 v 28 h -28 z m -112,0 h 28 v 28 h -28 z m -28,0 h 28 v 28 h -28 z m 700,-28 h 28 v 28 h -28 z m -56,0 h 28 v 28 h -28 z m -28,0 h 28 v 28 h -28 z m -112,0 h 28 v 28 h -28 z m -56,0 h 28 v 28 h -28 z m -84,0 h 28 v 28 h -28 z m -28,0 h 28 v 28 h -28 z m -28,0 h 28 v 28 h -28 z m -28,0 h 28 v 28 h -28 z m -28,0 h 28 v 28 h -28 z m -28,0 h 28 v 28 h -28 z m -28,0 h 28 v 28 h -28 z m -84,0 h 28 v 28 h -28 z m -28,0 h 28 v 28 h -28 z m -28,0 h 28 v 28 h -28 z m -56,0 h 28 v 28 h -28 z m -28,0 h 28 v 28 h -28 z m -28,0 h 28 v 28 h -28 z m 784,-28 h 28 v 28 h -28 z m -28,0 h 28 v 28 h -28 z m -84,0 h 28 v 28 h -28 z m -28,0 h 28 v 28 h -28 z m -28,0 h 28 v 28 h -28 z m -28,0 h 28 v 28 h -28 z m -28,0 h 28 v 28 h -28 z m -28,0 h 28 v 28 h -28 z m -28,0 h 28 v 28 h -28 z m -84,0 h 28 v 28 h -28 z m -28,0 h 28 v 28 h -28 z m -56,0 h 28 v 28 h -28 z m -84,0 h 28 v 28 h -28 z m -84,0 h 28 v 28 h -28 z m -56,0 h 28 v 28 h -28 z m -28,0 h 28 v 28 h -28 z m -84,0 h 28 v 28 h -28 z m -28,0 h 28 v 28 h -28 z m -28,0 h 28 v 28 h -28 z m -28,0 h 28 v 28 h -28 z m -28,0 h 28 v 28 h -28 z m -28,0 h 28 v 28 h -28 z m -84,0 h 28 v 28 H 56 Z m 980,-28 h 28 v 28 h -28 z m -84,0 h 28 v 28 h -28 z m -56,0 h 28 v 28 h -28 z m -112,0 h 28 v 28 h -28 z m -112,0 h 28 v 28 h -28 z m -28,0 h 28 v 28 h -28 z m -84,0 h 28 v 28 h -28 z m -56,0 h 28 v 28 h -28 z m -140,0 h 28 v 28 h -28 z m -28,0 h 28 v 28 h -28 z m -28,0 h 28 v 28 h -28 z m -28,0 h 28 v 28 h -28 z m -28,0 h 28 v 28 h -28 z m -112,0 h 28 v 28 h -28 z m -28,0 h 28 v 28 h -28 z m -56,0 h 28 v 28 H 56 Z m 1008,-28 h 28 v 28 h -28 z m -28,0 h 28 v 28 h -28 z m -28,0 h 28 v 28 h -28 z m -112,0 h 28 v 28 h -28 z m -28,0 h 28 v 28 h -28 z m -28,0 h 28 v 28 h -28 z m -28,0 h 28 v 28 h -28 z m -28,0 h 28 v 28 h -28 z m -28,0 h 28 v 28 h -28 z m -84,0 h 28 v 28 h -28 z m -56,0 h 28 v 28 h -28 z m -56,0 h 28 v 28 h -28 z m -28,0 h 28 v 28 h -28 z m -112,0 h 28 v 28 h -28 z m -56,0 h 28 v 28 h -28 z m -28,0 h 28 v 28 h -28 z m -28,0 h 28 v 28 h -28 z m -56,0 h 28 v 28 h -28 z m -28,0 h 28 v 28 h -28 z m -28,0 h 28 v 28 h -28 z m -28,0 h 28 v 28 h -28 z m -112,0 h 28 v 28 H 56 Z m 952,-28 h 28 v 28 h -28 z m -84,0 h 28 v 28 h -28 z m -56,0 h 28 v 28 h -28 z m -84,0 h 28 v 28 h -28 z m -28,0 h 28 v 28 h -28 z m -56,0 h 28 v 28 h -28 z m -196,0 h 28 v 28 h -28 z m -28,0 h 28 v 28 h -28 z m -28,0 h 28 v 28 h -28 z m -28,0 h 28 v 28 h -28 z m -28,0 h 28 v 28 h -28 z m -112,0 h 28 v 28 h -28 z m -112,0 h 28 v 28 h -28 z m -28,0 h 28 v 28 h -28 z m -28,0 h 28 v 28 h -28 z m -56,0 h 28 v 28 H 56 Z m 1008,-28 h 28 v 28 h -28 z m -56,0 h 28 v 28 h -28 z m -56,0 h 28 v 28 h -28 z m -28,0 h 28 v 28 h -28 z m -28,0 h 28 v 28 h -28 z m -28,0 h 28 v 28 h -28 z m -28,0 h 28 v 28 h -28 z m -28,0 h 28 v 28 h -28 z m -28,0 h 28 v 28 h -28 z m -56,0 h 28 v 28 h -28 z m -56,0 h 28 v 28 h -28 z m -56,0 h 28 v 28 h -28 z m -56,0 h 28 v 28 h -28 z m -112,0 h 28 v 28 h -28 z m -84,0 h 28 v 28 h -28 z m -28,0 h 28 v 28 h -28 z m -28,0 h 28 v 28 h -28 z m -84,0 h 28 v 28 h -28 z m -28,0 h 28 v 28 h -28 z m -56,0 h 28 v 28 h -28 z m -28,0 h 28 v 28 h -28 z m 924,-28 h 28 v 28 h -28 z m -84,0 h 28 v 28 h -28 z m -28,0 h 28 v 28 h -28 z m -28,0 h 28 v 28 h -28 z m -28,0 h 28 v 28 h -28 z m -28,0 h 28 v 28 h -28 z m -28,0 h 28 v 28 h -28 z m -168,0 h 28 v 28 h -28 z m -56,0 h 28 v 28 h -28 z m -84,0 h 28 v 28 h -28 z m -56,0 h 28 v 28 h -28 z m -28,0 h 28 v 28 h -28 z m -140,0 h 28 v 28 h -28 z m -84,0 h 28 v 28 h -28 z m -56,0 h 28 v 28 h -28 z m -28,0 h 28 v 28 h -28 z m -28,0 h 28 v 28 H 84 Z m 980,-28 h 28 v 28 h -28 z m -28,0 h 28 v 28 h -28 z m -56,0 h 28 v 28 h -28 z m -28,0 h 28 v 28 h -28 z m -28,0 h 28 v 28 h -28 z m -28,0 h 28 v 28 h -28 z m -56,0 h 28 v 28 h -28 z m -28,0 h 28 v 28 h -28 z m -56,0 h 28 v 28 h -28 z m -28,0 h 28 v 28 h -28 z m -56,0 h 28 v 28 h -28 z m -28,0 h 28 v 28 h -28 z m -28,0 h 28 v 28 h -28 z m -56,0 h 28 v 28 h -28 z m -56,0 h 28 v 28 h -28 z m -28,0 h 28 v 28 h -28 z m -112,0 h 28 v 28 h -28 z m -28,0 h 28 v 28 h -28 z m -112,0 h 28 v 28 h -28 z m -112,0 h 28 v 28 h -28 z m -28,0 h 28 v 28 H 84 Z m 952,-28 h 28 v 28 h -28 z m -56,0 h 28 v 28 h -28 z m -112,0 h 28 v 28 h -28 z m -28,0 h 28 v 28 h -28 z m -84,0 h 28 v 28 h -28 z m -56,0 h 28 v 28 h -28 z m -56,0 h 28 v 28 h -28 z m -28,0 h 28 v 28 h -28 z m -28,0 h 28 v 28 h -28 z m -84,0 h 28 v 28 h -28 z m -84,0 h 28 v 28 h -28 z m -140,0 h 28 v 28 h -28 z m -28,0 h 28 v 28 h -28 z m -56,0 h 28 v 28 h -28 z m -28,0 h 28 v 28 h -28 z m -28,0 h 28 v 28 h -28 z m -28,0 h 28 v 28 h -28 z m -56,0 h 28 v 28 H 56 Z m 952,-28 h 28 v 28 h -28 z m -28,0 h 28 v 28 h -28 z m -28,0 h 28 v 28 h -28 z m -56,0 h 28 v 28 h -28 z m -28,0 h 28 v 28 h -28 z m -56,0 h 28 v 28 h -28 z m -56,0 h 28 v 28 h -28 z m -140,0 h 28 v 28 h -28 z m -28,0 h 28 v 28 h -28 z m -56,0 h 28 v 28 h -28 z m -56,0 h 28 v 28 h -28 z m -84,0 h 28 v 28 h -28 z m -56,0 h 28 v 28 h -28 z m -28,0 h 28 v 28 h -28 z m -28,0 h 28 v 28 h -28 z m -28,0 h 28 v 28 h -28 z m -28,0 h 28 v 28 h -28 z m -140,0 h 28 v 28 H 84 Z m -28,0 h 28 v 28 H 56 Z m 1008,-28 h 28 v 28 h -28 z m -84,0 h 28 v 28 h -28 z m -28,0 h 28 v 28 h -28 z m -56,0 h 28 v 28 h -28 z m -28,0 h 28 v 28 h -28 z m -84,0 h 28 v 28 h -28 z m -112,0 h 28 v 28 h -28 z m -28,0 h 28 v 28 h -28 z m -28,0 h 28 v 28 h -28 z m -28,0 h 28 v 28 h -28 z m -112,0 h 28 v 28 h -28 z m -28,0 h 28 v 28 h -28 z m -28,0 h 28 v 28 h -28 z m -56,0 h 28 v 28 h -28 z m -56,0 h 28 v 28 h -28 z m -28,0 h 28 v 28 h -28 z m -28,0 h 28 v 28 h -28 z m -84,0 h 28 v 28 h -28 z m -56,0 h 28 v 28 h -28 z m -28,0 h 28 v 28 H 84 Z m 980,-28 h 28 v 28 h -28 z m -28,0 h 28 v 28 h -28 z m -28,0 h 28 v 28 h -28 z m -28,0 h 28 v 28 h -28 z m -56,0 h 28 v 28 h -28 z m -112,0 h 28 v 28 h -28 z m -28,0 h 28 v 28 h -28 z m -140,0 h 28 v 28 h -28 z m -56,0 h 28 v 28 h -28 z m -56,0 h 28 v 28 h -28 z m -28,0 h 28 v 28 h -28 z m -28,0 h 28 v 28 h -28 z m -28,0 h 28 v 28 h -28 z m -56,0 h 28 v 28 h -28 z m -28,0 h 28 v 28 h -28 z m -56,0 h 28 v 28 h -28 z m -56,0 h 28 v 28 h -28 z m -28,0 h 28 v 28 h -28 z m -28,0 h 28 v 28 h -28 z m 840,-28 h 28 v 28 h -28 z m -56,0 h 28 v 28 h -28 z m -56,0 h 28 v 28 h -28 z m -168,0 h 28 v 28 h -28 z m -56,0 h 28 v 28 h -28 z m -84,0 h 28 v 28 h -28 z m -56,0 h 28 v 28 h -28 z m -28,0 h 28 v 28 h -28 z m -56,0 h 28 v 28 h -28 z m -28,0 h 28 v 28 h -28 z m -28,0 h 28 v 28 h -28 z m -84,0 h 28 v 28 h -28 z m -140,0 h 28 v 28 h -28 z m -56,0 h 28 v 28 h -28 z m -28,0 h 28 v 28 h -28 z m -28,0 h 28 v 28 H 84 Z m -28,0 h 28 v 28 H 56 Z m 1008,-28 h 28 v 28 h -28 z m -28,0 h 28 v 28 h -28 z m -28,0 h 28 v 28 h -28 z m -56,0 h 28 v 28 h -28 z m -28,0 h 28 v 28 h -28 z m -28,0 h 28 v 28 h -28 z m -28,0 h 28 v 28 h -28 z m -28,0 h 28 v 28 h -28 z m -28,0 h 28 v 28 h -28 z m -28,0 h 28 v 28 h -28 z m -112,0 h 28 v 28 h -28 z m -168,0 h 28 v 28 h -28 z m -56,0 h 28 v 28 h -28 z m -28,0 h 28 v 28 h -28 z m -28,0 h 28 v 28 h -28 z m -56,0 h 28 v 28 h -28 z m -28,0 h 28 v 28 h -28 z m -28,0 h 28 v 28 h -28 z m -56,0 h 28 v 28 h -28 z m -84,0 h 28 v 28 h -28 z m -28,0 h 28 v 28 h -28 z m -56,0 h 28 v 28 H 56 Z m 1008,-28 h 28 v 28 h -28 z m -112,0 h 28 v 28 h -28 z m -28,0 h 28 v 28 h -28 z m -28,0 h 28 v 28 h -28 z m -112,0 h 28 v 28 h -28 z m -140,0 h 28 v 28 h -28 z m -28,0 h 28 v 28 h -28 z m -56,0 h 28 v 28 h -28 z m -28,0 h 28 v 28 h -28 z m -28,0 h 28 v 28 h -28 z m -28,0 h 28 v 28 h -28 z m -28,0 h 28 v 28 h -28 z m -28,0 h 28 v 28 h -28 z m -84,0 h 28 v 28 h -28 z m -28,0 h 28 v 28 h -28 z m -140,0 h 28 v 28 h -28 z m -28,0 h 28 v 28 h -28 z m 924,-28 h 28 v 28 h -28 z m -28,0 h 28 v 28 h -28 z m -56,0 h 28 v 28 h -28 z m -28,0 h 28 v 28 h -28 z m -28,0 h 28 v 28 h -28 z m -28,0 h 28 v 28 h -28 z m -28,0 h 28 v 28 h -28 z m -56,0 h 28 v 28 h -28 z m -28,0 h 28 v 28 h -28 z m -28,0 h 28 v 28 h -28 z m -28,0 h 28 v 28 h -28 z m -84,0 h 28 v 28 h -28 z m -112,0 h 28 v 28 h -28 z m -28,0 h 28 v 28 h -28 z m -28,0 h 28 v 28 h -28 z m -56,0 h 28 v 28 h -28 z m -84,0 h 28 v 28 h -28 z m -28,0 h 28 v 28 h -28 z m -56,0 h 28 v 28 h -28 z m -28,0 h 28 v 28 h -28 z m -84,0 h 28 v 28 h -28 z m -28,0 h 28 v 28 h -28 z m -28,0 h 28 v 28 H 84 Z m 840,-28 h 28 v 28 h -28 z m -168,0 h 28 v 28 h -28 z m -56,0 h 28 v 28 h -28 z m -28,0 h 28 v 28 h -28 z m -28,0 h 28 v 28 h -28 z m -28,0 h 28 v 28 h -28 z m -28,0 h 28 v 28 h -28 z m -28,0 h 28 v 28 h -28 z m -28,0 h 28 v 28 h -28 z m -28,0 h 28 v 28 h -28 z m -84,0 h 28 v 28 h -28 z m -56,0 h 28 v 28 h -28 z m -28,0 h 28 v 28 h -28 z m -56,0 h 28 v 28 h -28 z m -28,0 h 28 v 28 h -28 z m -168,0 h 28 v 28 H 84 Z m -28,0 h 28 v 28 H 56 Z m 1008,-28 h 28 v 28 h -28 z m -28,0 h 28 v 28 h -28 z m -28,0 h 28 v 28 h -28 z m -56,0 h 28 v 28 h -28 z m -56,0 h 28 v 28 h -28 z m -28,0 h 28 v 28 h -28 z m -56,0 h 28 v 28 h -28 z m -28,0 h 28 v 28 h -28 z m -28,0 h 28 v 28 h -28 z m -28,0 h 28 v 28 h -28 z m -56,0 h 28 v 28 h -28 z m -112,0 h 28 v 28 h -28 z m -28,0 h 28 v 28 h -28 z m -112,0 h 28 v 28 h -28 z m -28,0 h 28 v 28 h -28 z m -140,0 h 28 v 28 h -28 z m -28,0 h 28 v 28 h -28 z m -56,0 h 28 v 28 h -28 z m -28,0 h 28 v 28 h -28 z m -28,0 h 28 v 28 h -28 z m -28,0 h 28 v 28 H 84 Z m -28,0 h 28 v 28 H 56 Z m 1008,-28 h 28 v 28 h -28 z m -196,0 h 28 v 28 h -28 z m -56,0 h 28 v 28 h -28 z m -28,0 h 28 v 28 h -28 z m -56,0 h 28 v 28 h -28 z m -28,0 h 28 v 28 h -28 z m -56,0 h 28 v 28 h -28 z m -140,0 h 28 v 28 h -28 z m -56,0 h 28 v 28 h -28 z m -28,0 h 28 v 28 h -28 z m -84,0 h 28 v 28 h -28 z m -56,0 h 28 v 28 h -28 z m -28,0 h 28 v 28 h -28 z m -56,0 h 28 v 28 h -28 z m -28,0 h 28 v 28 h -28 z m -28,0 h 28 v 28 h -28 z m 924,-28 h 28 v 28 h -28 z m -28,0 h 28 v 28 h -28 z m -84,0 h 28 v 28 h -28 z m -28,0 h 28 v 28 h -28 z m -28,0 h 28 v 28 h -28 z m -28,0 h 28 v 28 h -28 z m -56,0 h 28 v 28 h -28 z m -28,0 h 28 v 28 h -28 z m -28,0 h 28 v 28 h -28 z m -28,0 h 28 v 28 h -28 z m -84,0 h 28 v 28 h -28 z m -28,0 h 28 v 28 h -28 z m -56,0 h 28 v 28 h -28 z m -28,0 h 28 v 28 h -28 z m -112,0 h 28 v 28 h -28 z m -28,0 h 28 v 28 h -28 z m -28,0 h 28 v 28 h -28 z m -28,0 h 28 v 28 h -28 z m -56,0 h 28 v 28 h -28 z m -56,0 h 28 v 28 h -28 z m -28,0 h 28 v 28 h -28 z m -28,0 h 28 v 28 h -28 z m -84,0 h 28 v 28 H 84 Z m 952,-28 h 28 v 28 h -28 z m -112,0 h 28 v 28 h -28 z m -28,0 h 28 v 28 h -28 z m -140,0 h 28 v 28 h -28 z m -56,0 h 28 v 28 h -28 z m -28,0 h 28 v 28 h -28 z m -168,0 h 28 v 28 h -28 z m -28,0 h 28 v 28 h -28 z m -28,0 h 28 v 28 h -28 z m -28,0 h 28 v 28 h -28 z m -28,0 h 28 v 28 h -28 z m -56,0 h 28 v 28 h -28 z m -56,0 h 28 v 28 h -28 z m -112,0 h 28 v 28 h -28 z m -28,0 h 28 v 28 h -28 z m -28,0 h 28 v 28 h -28 z m -28,0 h 28 v 28 H 84 Z m 924,-28 h 28 v 28 h -28 z m -28,0 h 28 v 28 h -28 z m -28,0 h 28 v 28 h -28 z m -28,0 h 28 v 28 h -28 z m -28,0 h 28 v 28 h -28 z m -56,0 h 28 v 28 h -28 z m -84,0 h 28 v 28 h -28 z m -28,0 h 28 v 28 h -28 z m -56,0 h 28 v 28 h -28 z m -56,0 h 28 v 28 h -28 z m -56,0 h 28 v 28 h -28 z m -84,0 h 28 v 28 h -28 z m -84,0 h 28 v 28 h -28 z m -28,0 h 28 v 28 h -28 z m -56,0 h 28 v 28 h -28 z m -84,0 h 28 v 28 h -28 z m -28,0 h 28 v 28 h -28 z m -28,0 h 28 v 28 h -28 z m -28,0 h 28 v 28 h -28 z m -28,0 h 28 v 28 h -28 z m -56,0 h 28 v 28 H 56 Z m 784,-28 h 28 v 28 h -28 z m -56,0 h 28 v 28 h -28 z m -56,0 h 28 v 28 h -28 z m -84,0 h 28 v 28 h -28 z m -28,0 h 28 v 28 h -28 z m -112,0 h 28 v 28 h -28 z m -28,0 h 28 v 28 h -28 z m -56,0 h 28 v 28 h -28 z m -28,0 h 28 v 28 h -28 z m -84,0 h 28 v 28 h -28 z m -28,0 h 28 v 28 h -28 z m 560,-28 h 28 v 28 h -28 z m -56,0 h 28 v 28 h -28 z m -56,0 h 28 v 28 h -28 z m -56,0 h 28 v 28 h -28 z m -56,0 h 28 v 28 h -28 z m -56,0 h 28 v 28 h -28 z m -56,0 h 28 v 28 h -28 z m -56,0 h 28 v 28 h -28 z m -56,0 h 28 v 28 h -28 z m -56,0 h 28 v 28 h -28 z m -56,0 h 28 v 28 h -28 z m 532,-28 h 28 v 28 h -28 z m -140,0 h 28 v 28 h -28 z m -56,0 h 28 v 28 h -28 z m -56,0 h 28 v 28 h -28 z m -112,0 h 28 v 28 h -28 z m -84,0 h 28 v 28 h -28 z m -28,0 h 28 v 28 h -28 z m -56,0 h 28 v 28 h -28 z m 560,-28 h 28 v 28 h -28 z m -140,0 h 28 v 28 h -28 z m -84,0 h 28 v 28 h -28 z m -28,0 h 28 v 28 h -28 z m -112,0 h 28 v 28 h -28 z m -56,0 h 28 v 28 h -28 z m -140,0 h 28 v 28 h -28 z m 532,-28 h 28 v 28 h -28 z m -28,0 h 28 v 28 h -28 z m -28,0 h 28 v 28 h -28 z m -56,0 h 28 v 28 h -28 z m -28,0 h 28 v 28 h -28 z m -56,0 h 28 v 28 h -28 z m -28,0 h 28 v 28 h -28 z m -56,0 h 28 v 28 h -28 z m -140,0 h 28 v 28 h -28 z m -84,0 h 28 v 28 h -28 z m -28,0 h 28 v 28 h -28 z m 504,-28 h 28 v 28 h -28 z m -84,0 h 28 v 28 h -28 z m -56,0 h 28 v 28 h -28 z m -28,0 h 28 v 28 h -28 z m -28,0 h 28 v 28 h -28 z m -28,0 h 28 v 28 h -28 z m -56,0 h 28 v 28 h -28 z m -56,0 h 28 v 28 h -28 z m -28,0 h 28 v 28 h -28 z m -84,0 h 28 v 28 h -28 z m -56,0 h 28 v 28 H 280 Z M 812,84 h 28 v 28 h -28 z m -56,0 h 28 v 28 h -28 z m -112,0 h 28 v 28 h -28 z m -56,0 h 28 v 28 h -28 z m -28,0 h 28 v 28 h -28 z m -28,0 h 28 v 28 h -28 z m -28,0 h 28 v 28 h -28 z m -56,0 h 28 v 28 h -28 z m -140,0 h 28 v 28 H 308 Z M 784,56 h 28 v 28 h -28 z m -56,0 h 28 v 28 h -28 z m -28,0 h 28 v 28 h -28 z m -56,0 h 28 v 28 h -28 z m -28,0 h 28 v 28 h -28 z m -56,0 h 28 v 28 h -28 z m -168,0 h 28 v 28 h -28 z m -28,0 h 28 v 28 h -28 z m -28,0 h 28 v 28 h -28 z" /></svg>
