<?xml version="1.0" encoding="UTF-8" standalone="no"?>
<svg
   version="1.1"
   id="Layer_1"
   x="0px"
   y="0px"
   width="1125px"
   height="1125px"
   viewBox="0 0 1125 1125"
   enable-background="new 0 0 1125 1125"
   xml:space="preserve"
   sodipodi:docname="qr-code.svg"
   inkscape:version="1.1 (c4e8f9e, 2021-05-24)"
   xmlns:inkscape="http://www.inkscape.org/namespaces/inkscape"
   xmlns:sodipodi="http://sodipodi.sourceforge.net/DTD/sodipodi-0.dtd"
   xmlns="http://www.w3.org/2000/svg"
   xmlns:svg="http://www.w3.org/2000/svg"><defs
   id="defs4763"><clipPath
   clipPathUnits="userSpaceOnUse"
   id="clipPath8709"><path
     d="m 28.598,16.523 h 196.504 v 104 H 28.598 Z"
     id="path8707" /></clipPath><clipPath
   clipPathUnits="userSpaceOnUse"
   id="clipPath8719"><path
     d="M 0,0 H 226 V 161 H 0 Z"
     id="path8717" /></clipPath><clipPath
   clipPathUnits="userSpaceOnUse"
   id="clipPath8741"><path
     d="m 195.598,0 h 29.504 v 27.523 h -29.504 z"
     id="path8739" /></clipPath><clipPath
   clipPathUnits="userSpaceOnUse"
   id="clipPath8751"><path
     d="M 0,0 H 226 V 161 H 0 Z"
     id="path8749" /></clipPath><clipPath
   clipPathUnits="userSpaceOnUse"
   id="clipPath8763"><path
     d="m 182.598,32.523 h 42.504 v 70 h -42.504 z"
     id="path8761" /></clipPath><clipPath
   clipPathUnits="userSpaceOnUse"
   id="clipPath8773"><path
     d="M 0,0 H 226 V 161 H 0 Z"
     id="path8771" /></clipPath>

</defs><sodipodi:namedview
   id="namedview4761"
   pagecolor="#ffffff"
   bordercolor="#111111"
   borderopacity="1"
   inkscape:pageshadow="0"
   inkscape:pageopacity="0"
   inkscape:pagecheckerboard="1"
   showgrid="false"
   inkscape:zoom="0.26241519"
   inkscape:cx="1112.7405"
   inkscape:cy="165.76785"
   inkscape:window-width="1920"
   inkscape:window-height="1043"
   inkscape:window-x="1920"
   inkscape:window-y="0"
   inkscape:window-maximized="1"
   inkscape:current-layer="Layer_1" />
<path
   id="rect4"
   style="fill:#000000;stroke-width:0.25"
   d="m 49.999958,50.000026 v 26.25 122.499994 26.25 h 26.25 122.500002 26.25 v -26.25 -122.499994 -26.25 h -26.25 -122.500002 z m 200.000002,0 v 25 24.999994 25 h 25 25 v 25 25 h 25 25 v -25 h -25 v -25 -25 h 25 25 v -24.999994 -25 h -25 -25 v 25 h -25 v 24.999994 h -25 V 75.000026 h 25 v -25 h -25 z m 125,49.999994 v 25 h -25 v 25 h 25 v 25 h -25 v 25 25 h -25 v -25 h -25 v 25 25 h -25 v -25 -25 h 25 v -25 h -25 -25 v 25 25 25 25 h 25 25 v 25 h 25 25 25 25 v 25 h 25 H 450 v 25 h -25.00004 v 25 H 450 v 25 h 25 25 v -25 h -25 v -25 h 25 25 25 v -25 -25 -25 h -25 v -25 h -25 v 25 25 h 25 v 25 h -25 -25 v -25 -25 h -25 v 25 h -25.00004 v -25 h -25 v -25 h 25 v -25 -25 -25 H 450 v -25 h -25.00004 -25 v -25 h 25 v -25 h -25 z m 175.00004,175 h 25 v -25 -25 -25 h -25 v 25 25 z m 0,-75 v -25 h -25 v 25 z m -25,0 h -25 v 25 h 25 z m 50,0 h 25 v -25 -25 h 25 25 v 25 h 25 v 25 h 25 v -25 h 25 v -25 h -25 -25 v -25 -25 -24.999994 H 650 V 100.00002 H 625 600 V 75.000026 h -25 v -25 h -25 v 25 h -25 -25 v 24.999994 h 25 v 25 25 h 25 v -25 -25 h 25 v 25 25 25 z m -75,-100 H 475 V 75.000026 h -25 v 24.999994 25 h 25 25 z M 450,75.000026 v -25 h -25.00004 -25 v 25 h 25 z m 275,74.999994 h 25 v -25 h 25 25 25 25 v -25 h -25 -25 v -24.999994 -25 h -25 -25 v 25 h -25 v 24.999994 h -25 v 25 h 25 z m 0,-74.999994 v -25 h -25 v 25 z m 125,24.999994 h 25 v -24.999994 -25 h -25 v 25 z m -100,50 v 25 h 25 25 v 25 25 h 25 v -25 -25 h 25 v -25 h -25 -25 -25 z m 75,75 v 25 h 25 v -25 z m 25,0 h 25 v -25 h -25 z m 0,25 v 25 h -25 -25 v -25 h -25 -25 v -25 h -25 v -25 h -25 v 25 h -25 v -25 h -25 v 25 25 25 h 25 v 25 h 25 v 25 25 h -25 v 25 h -25 -25 v -25 -25 h -25 v 25 h -25 v 25 h -25 v 25 h -25 v 25 h 25 25 v -25 h 25 25 25 v 25 h 25 v -25 h 25 25 25 25 v -25 h -25 v -25 -25 h 25 25 v -25 h 25 25 v 25 h -25 -25 v 25 h 25 v 25 h 25 25 v -25 h 25 v 25 h 25 v 25 25 h 25 25 25 v -25 h -25 v -25 h -25 v -25 h -25 v -25 h 25 v -25 h -25 v -25 h 25 v -25 h -25 -25 -25 z m 100,25 v 25 h 25 v -25 z m 0,50 v 25 h 25 v 25 h 25 v 25 h 25 v -25 -25 h -25 v -25 h -25 z m 75,25 h 25 v 25 25 h 25 v -25 -25 -25 h -25 -25 z m -100,75 h -25 v 25 h 25 z m 0,25 v 25 h -25 v 25 h 25 25 v 25 25 25 25 h 25 v -25 -25 h 25 v -25 h -25 v -25 h 25 v -25 h -25 -25 v -25 z m 75,25 h 25 25 v -25 h -25 -25 z m 50,-25 h 25 v -25 h -25 z m 0,25 v 25 h 25 v -25 z m -50,75 v 25 h 25 v 25 h 25 25 v -25 -25 h -25 v -25 h -25 v 25 z m -100,-75 v -25 h -25 v 25 z m -25,0 h -25 v 25 h 25 z m 25,-50 v -25 -25 h -25 v 25 h -25 v 25 h 25 z m -75,-50 h -25 v 25 25 25 h 25 v -25 -25 z m -25,75 h -25 v 25 h 25 z m 0,25 v 25 25 h 25 v -25 -25 z m 25,50 v 25 h -25 v 25 h 25 v 25 h 25 v 25 25 h 25 v -25 -25 h 25 v 25 25 h 25 v 25 24.99996 h 25 25 25 v -24.99996 h -25 -25 v -25 h 25 25 v -25 h -25 -25 -25 v -25 -25 h -25 -25 -25 v -25 -25 z m 175,125 v 25 h 25 v 24.99996 25 25 h -25 v -25 h -25 -25 v 25 h 25 v 25 h -25 -25 v 25 h -25 -25 v 25 h -25 v -25 h -25 v 25 25 25 h 25 v 25 25 h -25 -25 v -25 -25 -25 h -25 -25 v -25 h 25 25 v -25 h 25 v -25 h -25 v -25 h -25 v -25 h -25 v -25 h -25 v 25 h -25 -25 v -25 h -25 v 25 25 25 25 25 25 h -25 v 25 h 25 v 25 h -25 v 25 h 25 25 v 25 25 24.99999 H 650 V 1025 v 25 25 h 25 25 v -25 -25 h 25 25 v 25 25 h 25 25 v -25 h -25 v -25 -25.00003 h -25 -25 -25 v -24.99999 h 25 25 v -25 h -25 v -25 h -25 v -25 h -25 v -25 -25 -25 h 25 v -25 h 25 v 25 h -25 v 25 h 25 v 25 h 25 v 25 h -25 v 25 h 25 25 v 25 h 25 25 25 v 25 h 25 V 999.99997 1025 h -25 v -25.00003 -24.99999 h -25 -25 v 24.99999 h 25 V 1025 h -25 v 25 h 25 v 25 h 25 v -25 h 25 v 25 h 25 v -25 h 25 v -25 h 25 v 25 h -25 v 25 h 25 25 v -25 h 25 v -25 h -25 v -25.00003 h -25 v -24.99999 h 25 v 24.99999 h 25 v -24.99999 h 25 25 v -25 -25 h -25 v 25 h -25 v -25 -25 -25 h -25 v -25 h 25 v -25 h -25 -25 v -25 h 25 25 v 25 h 25 v -25 -25 h 25 v -25 h 25 v -25 h -25 v -25 h 25 v -24.99996 h -25 v -25 -25 h -25 v 25 z m 50,124.99996 v 25 h 25 v -25 z m -50,75 v 25 h 25 v -25 z m 25,25 v 25 h 25 25 v -25 -25 -25 h -25 v 25 25 z m 25,100 v 24.99999 h 25 v -24.99999 z m 0,24.99999 h -25 V 1025 v 25 h 25 v -25 z M 1025,1050 h -25 v 25 h 25 z M 650,999.99997 v -24.99999 h -25 v 24.99999 z m -25,0 H 600 V 1025 h 25 z M 600,1025 h -25 -25 v 25 h -25 v -25 H 500 V 999.99997 H 475 V 1025 h -25 -25.00004 -25 v -25.00003 h -25 V 1025 h -25 v -25.00003 -24.99999 h 25 25 v 24.99999 h 25 H 450 475 v -24.99999 h -25 -25.00004 v -25 h -25 v -25 h -25 v 25 h -25 -25 v -25 h -25 v 25 h -25 -25 v 25 24.99999 V 1025 h 25 v 25 25 h 25 25 25 v -25 h 25 25 v 25 h 25 v -25 H 450 v 25 h 25 v -25 h 25 v 25 h 25 25 25 25 25 v -25 H 600 Z M 299.99996,924.99998 v -25 h -25 v 25 z m -25,-25 v -25 h -25 v 25 z m -25,-25 v -25 h 25 v 25 h 25 v 25 h 25 v 25 h 25 25 v -25 h -25 v -25 h -25 v -25 -25 -25 h 25 v -25 h -25 -25 v 25 h -25 v 25 h -25 v -25 -25 h -25 v 25 h -25 -25 v 25 h 25 25 v 25 h -25 v 25 h 25 z m -25,-100 v -25 h -25 v 25 z m -25,-25 v -25 h 25 v 25 h 25 v -25 h 25 v -25 -24.99996 h -25 -25 v 24.99996 h -25 v -24.99996 h 25 v -25 h -25 -25 v 25 h -25 v 24.99996 25 25 25 h 25 v -25 z m -50,25 h -25 v 25 25 h 25 v -25 z m -25,50 H 99.999958 v 25 h 25.000002 z m 25,-149.99996 v -25 -25 h -25 -25.000002 -25 -25 v 25 h 25 25 v 25 24.99996 25 25 h 25.000002 v -25 -25 -24.99996 z m 125,49.99996 v 25 h 25 25 v -25 h -25 z m 0,25 h -25 v 25 h 25 z m 75,25 h 25 25 v 25 h 25 v 25 25 25 H 450 v -25 -25 -25 h 25 v -25 h 25 v -25 h -25 v -25 h -25 v 25 h -25.00004 v -25 H 450 v -25 h -25.00004 -25 v 25 h -25 v -25 -24.99996 -25 h -25 v 25 h -25 -25 v 24.99996 h 25 25 v 25 25 z m 125.00004,-50 h 25 v -25 h -25 z m 25,50 v 25 h 25 v -25 z m 25,0 h 25 25 v -25 h -25 v -25 -25 h -25 v 25 25 z m 50,-25 h 25 v -25 -25 h -25 v 25 z m 25,0 v 25 h -25 v 25 h 25 25 v -25 -25 z m -25,50 h -25 v 25 25 25 h -25 v -25 h -25 v 25 h -25 -25 v 25 25 h 25 25 25 v -25 h 25 25 v -25 -25 -25 z m 0,100 v 25 h 25 v -25 z m 25,0 h 25 v -25 h -25 z m -25,25 h -25 -25 v 25 h 25 v 25 h 25 v -25 z m -25,50 h -25 -25 v 24.99999 h 25 25 z m -50,0 v -25 h -25 v 25 z m 0,-175 h -25 v 25 h 25 z m -100.00004,0 h -25 -25 v 25 25 h 25 v -25 h 25 z m -25,50 v 25 25 h 25 v -25 -25 z m 25,50 v 25 h 25 v -25 z M 750,699.99998 h 25 25 v -24.99996 -25 h -25 v 25 h -25 z m 25,-49.99996 v -25 h 25 v -25 -25 h -25 v -25 -25 h -25 v 25 25 25 25 25 z m 25,49.99996 v 25 h 25 v -25 z m 25,0 h 25 v -24.99996 h -25 z m 25,0 v 25 h -25 v 25 25 h 25 v -25 h 25 v -25 h 25 v -25 -24.99996 h -25 v 24.99996 z m 25,50 v 25 h 25 v -25 z m 0,25 h -25 v 25 h 25 z M 775,475.00002 h -25 v 25 h 25 z m 0,-25 v -25 h -25 v 25 z m 25,-75 v -25 h -25 v 25 z m -175,-50 h 25 25 v -25 h -25 v -25 h -25 v -25 h -25 v 25 25 h 25 z m 25,-125 v -25 h -25 v 25 z m -25,0 h -25 v 25 h 25 z m 100,0 h 25 v -25 h -25 z m 25,0 v 25 h 25 v -25 z m -300,200 h -25.00004 -25 -25 -25 -25 v -25 h 25 25 v -25 -25 h -25 v 25 h -25 v -25 h -25 v 25 h -25 v 25 h 25 v 25 h -25 v 25 h -25 v -25 h -25 -25 v 25 h 25 v 25 h -25 v -25 h -25 v 25 25 h 25 25 v 25 h 25 v 25 h 25 v -25 -25 -25 h 25 25 v -25 h 25 v 25 h -25 v 25 h -25 v 25 h 25 25 v -25 h 25 v -25 -25 h 25 25 H 450 Z m -100.00004,100 v 25 25 25 h 25 v -25 -25 -25 z m 0,75 h -25 -25 v -25 h -25 v 25 25 h 25 v 25 25 h 25 v -25 -25 h 25 z m 0,25 v 25 h 25 v -25 z m -75,0 h -25 v -25 -25 -25 h -25 v 25 h -25 v -25 h 25 v -25 h -25 -25 v 25 h -25 v -25 h 25 v -25 h -25 v -25 h -25 -25.000002 v 25 25 25 25 h -25 v 25 h 25 v 25 h 25.000002 25 v -25 h 25 25 25 v 25 h -25 -25 v 25 h 25 25 25 v 25 h 25 v -25 z m -200.000002,-50 v -25 -25 -25 h -25 v 25 25 25 z m 25,-100 v -25 h -25 v 25 z m 0,-25 h 25.000002 25 25 v -25 h 25 v -25 h -25 v -25 -25 h -25 v 25 25 h -25 v 25 H 99.999958 Z m 25.000002,-50 v -25 -25 -25 h 25 25 v 25 h 25 25 v 25 h -25 v 25 h 25 25 v -25 h 25 v -25 h 25 v -25 h -25 -25 -25 -25 v -25 h -25 v -25 h -25 -25 -25.000002 v 25 25 h -25 v 25 h 25 v 25 h -25 v 25 h 25 z m -50.000002,0 h -25 v 25 h 25 z m 0,-25 v -25 h -25 v 25 z m 0,-50 v -25 h -25 v 25 z m 125.000002,-25 h 25 v -25 h -25 z m 50,100 v 25 h 25 v -25 z m 50,175 h 25 v -25 h -25 z M 900,50.000026 v 26.25 122.499994 26.25 h 26.25 122.5 26.25 v -26.25 -122.499994 -26.25 h -26.25 -122.5 z m -823.750042,26.25 H 198.74996 V 198.75002 H 76.249958 Z m 850.000042,0 h 122.5 V 198.75002 H 926.25 Z M 99.999958,100.00002 v 75 h 75.000002 v -75 z m 850.000042,0 v 75 h 75 v -75 z m -475,50 v 25 h 25 v -25 z m -100.00004,50 h 25 v 25 h -25 z m 75.00004,0 v 25 25 h 25 v -25 -25 z m -100.00004,50 h 25 v 25 h -25 z m 650.00004,0 v 25 25 h 25 v -25 h 25 v 25 h 25 v -25 -25 h -25 -25 z m -275,25 h 25 v 25 h -25 z m 150,25 h 25 v 25 h -25 z m 0,225 v 25 h 25 v -25 z M 675,749.99998 h 25 25 v 25 h -25 -25 z m -625.000042,25 v 25 25 25 25 h 25 v -25 -25 -25 h 25 v -25 h -25 z m 700.000042,0 h 25 v 25 h -25 z m -600.00004,75 v 25 h 25 v -25 z m 725.00004,25 h 25 25 25 v 25 25 25 h -25 -25 -25 v -25 -25 z m -825.000042,25 v 26.25 V 1048.75 1075 h 26.25 122.500002 26.25 v -26.25 -122.50002 -26.25 h -26.25 -122.500002 z m 850.000042,0 v 25 h 25 v -25 z m -823.750042,26.25 H 198.74996 V 1048.75 H 76.249958 Z m 23.75,23.75 V 1025 h 75.000002 v -75.00002 z m 200.000002,25 h 25 v 24.99999 h -25 z m 600.00004,0 h 25 v 24.99999 H 900 Z M 299.99996,1025 h 25 v 25 h -25 z" /><g
   style="fill:#0a234a"
   id="g12"
   transform="matrix(0.25,0,0,0.25,275,50)">

</g><g
   style="fill:#0a234a"
   id="g18"
   transform="matrix(0.25,0,0,0.25,325,50)">

</g><g
   style="fill:#0a234a"
   id="g24"
   transform="matrix(0.25,0,0,0.25,350,50)">

</g><g
   style="fill:#0a234a"
   id="g30"
   transform="matrix(0.25,0,0,0.25,400,50)">

</g><g
   style="fill:#0a234a"
   id="g36"
   transform="matrix(0.25,0,0,0.25,425,50)">

</g><g
   style="fill:#0a234a"
   id="g42"
   transform="matrix(0.25,0,0,0.25,550,50)">

</g><g
   style="fill:#0a234a"
   id="g48"
   transform="matrix(0.25,0,0,0.25,700,50)">

</g><g
   style="fill:#0a234a"
   id="g54"
   transform="matrix(0.25,0,0,0.25,750,50)">

</g><g
   style="fill:#0a234a"
   id="g60"
   transform="matrix(0.25,0,0,0.25,775,50)">

</g><g
   style="fill:#0a234a"
   id="g66"
   transform="matrix(0.25,0,0,0.25,850,50)">

</g><g
   style="fill:#0a234a"
   id="g72"
   transform="matrix(0.25,0,0,0.25,250,75)">

</g><g
   style="fill:#0a234a"
   id="g78"
   transform="matrix(0.25,0,0,0.25,300,75)">

</g><g
   style="fill:#0a234a"
   id="g84"
   transform="matrix(0.25,0,0,0.25,325,75)">

</g><g
   style="fill:#0a234a"
   id="g90"
   transform="matrix(0.25,0,0,0.25,350,75)">

</g><g
   style="fill:#0a234a"
   id="g96"
   transform="matrix(0.25,0,0,0.25,450,75)">

</g><g
   style="fill:#0a234a"
   id="g102"
   transform="matrix(0.25,0,0,0.25,500,75)">

</g><g
   style="fill:#0a234a"
   id="g108"
   transform="matrix(0.25,0,0,0.25,525,75)">

</g><g
   style="fill:#0a234a"
   id="g114"
   transform="matrix(0.25,0,0,0.25,550,75)">

</g><g
   style="fill:#0a234a"
   id="g120"
   transform="matrix(0.25,0,0,0.25,575,75)">

</g><g
   style="fill:#0a234a"
   id="g126"
   transform="matrix(0.25,0,0,0.25,650,75)">

</g><g
   style="fill:#0a234a"
   id="g132"
   transform="matrix(0.25,0,0,0.25,725,75)">

</g><g
   style="fill:#0a234a"
   id="g138"
   transform="matrix(0.25,0,0,0.25,750,75)">

</g><g
   style="fill:#0a234a"
   id="g144"
   transform="matrix(0.25,0,0,0.25,775,75)">

</g><g
   style="fill:#0a234a"
   id="g150"
   transform="matrix(0.25,0,0,0.25,850,75)">

</g><g
   style="fill:#0a234a"
   id="g156"
   transform="matrix(0.25,0,0,0.25,250,100)">

</g><g
   style="fill:#0a234a"
   id="g162"
   transform="matrix(0.25,0,0,0.25,275,100)">

</g><g
   style="fill:#0a234a"
   id="g168"
   transform="matrix(0.25,0,0,0.25,300,100)">

</g><g
   style="fill:#0a234a"
   id="g174"
   transform="matrix(0.25,0,0,0.25,375,100)">

</g><g
   style="fill:#0a234a"
   id="g180"
   transform="matrix(0.25,0,0,0.25,400,100)">

</g><g
   style="fill:#0a234a"
   id="g186"
   transform="matrix(0.25,0,0,0.25,450,100)">

</g><g
   style="fill:#0a234a"
   id="g192"
   transform="matrix(0.25,0,0,0.25,475,100)">

</g><g
   style="fill:#0a234a"
   id="g198"
   transform="matrix(0.25,0,0,0.25,525,100)">

</g><g
   style="fill:#0a234a"
   id="g204"
   transform="matrix(0.25,0,0,0.25,575,100)">

</g><g
   style="fill:#0a234a"
   id="g210"
   transform="matrix(0.25,0,0,0.25,600,100)">

</g><g
   style="fill:#0a234a"
   id="g216"
   transform="matrix(0.25,0,0,0.25,625,100)">

</g><g
   style="fill:#0a234a"
   id="g222"
   transform="matrix(0.25,0,0,0.25,650,100)">

</g><g
   style="fill:#0a234a"
   id="g228"
   transform="matrix(0.25,0,0,0.25,700,100)">

</g><g
   style="fill:#0a234a"
   id="g234"
   transform="matrix(0.25,0,0,0.25,725,100)">

</g><g
   style="fill:#0a234a"
   id="g240"
   transform="matrix(0.25,0,0,0.25,750,100)">

</g><g
   style="fill:#0a234a"
   id="g246"
   transform="matrix(0.25,0,0,0.25,775,100)">

</g><g
   style="fill:#0a234a"
   id="g252"
   transform="matrix(0.25,0,0,0.25,800,100)">

</g><g
   style="fill:#0a234a"
   id="g258"
   transform="matrix(0.25,0,0,0.25,825,100)">

</g><g
   style="fill:#0a234a"
   id="g264"
   transform="matrix(0.25,0,0,0.25,300,125)">

</g><g
   style="fill:#0a234a"
   id="g270"
   transform="matrix(0.25,0,0,0.25,350,125)">

</g><g
   style="fill:#0a234a"
   id="g276"
   transform="matrix(0.25,0,0,0.25,375,125)">

</g><g
   style="fill:#0a234a"
   id="g282"
   transform="matrix(0.25,0,0,0.25,525,125)">

</g><g
   style="fill:#0a234a"
   id="g288"
   transform="matrix(0.25,0,0,0.25,575,125)">

</g><g
   style="fill:#0a234a"
   id="g294"
   transform="matrix(0.25,0,0,0.25,600,125)">

</g><g
   style="fill:#0a234a"
   id="g300"
   transform="matrix(0.25,0,0,0.25,625,125)">

</g><g
   style="fill:#0a234a"
   id="g306"
   transform="matrix(0.25,0,0,0.25,650,125)">

</g><g
   style="fill:#0a234a"
   id="g312"
   transform="matrix(0.25,0,0,0.25,725,125)">

</g><g
   style="fill:#0a234a"
   id="g318"
   transform="matrix(0.25,0,0,0.25,300,150)">

</g><g
   style="fill:#0a234a"
   id="g324"
   transform="matrix(0.25,0,0,0.25,325,150)">

</g><g
   style="fill:#0a234a"
   id="g330"
   transform="matrix(0.25,0,0,0.25,375,150)">

</g><g
   style="fill:#0a234a"
   id="g336"
   transform="matrix(0.25,0,0,0.25,400,150)">

</g><g
   style="fill:#0a234a"
   id="g342"
   transform="matrix(0.25,0,0,0.25,425,150)">

</g><g
   style="fill:#0a234a"
   id="g348"
   transform="matrix(0.25,0,0,0.25,475,150)">

</g><g
   style="fill:#0a234a"
   id="g354"
   transform="matrix(0.25,0,0,0.25,575,150)">

</g><g
   style="fill:#0a234a"
   id="g360"
   transform="matrix(0.25,0,0,0.25,650,150)">

</g><g
   style="fill:#0a234a"
   id="g366"
   transform="matrix(0.25,0,0,0.25,675,150)">

</g><g
   style="fill:#0a234a"
   id="g372"
   transform="matrix(0.25,0,0,0.25,700,150)">

</g><g
   style="fill:#0a234a"
   id="g378"
   transform="matrix(0.25,0,0,0.25,750,150)">

</g><g
   style="fill:#0a234a"
   id="g384"
   transform="matrix(0.25,0,0,0.25,775,150)">

</g><g
   style="fill:#0a234a"
   id="g390"
   transform="matrix(0.25,0,0,0.25,800,150)">

</g><g
   style="fill:#0a234a"
   id="g396"
   transform="matrix(0.25,0,0,0.25,825,150)">

</g><g
   style="fill:#0a234a"
   id="g402"
   transform="matrix(0.25,0,0,0.25,250,175)">

</g><g
   style="fill:#0a234a"
   id="g408"
   transform="matrix(0.25,0,0,0.25,275,175)">

</g><g
   style="fill:#0a234a"
   id="g414"
   transform="matrix(0.25,0,0,0.25,350,175)">

</g><g
   style="fill:#0a234a"
   id="g420"
   transform="matrix(0.25,0,0,0.25,375,175)">

</g><g
   style="fill:#0a234a"
   id="g426"
   transform="matrix(0.25,0,0,0.25,400,175)">

</g><g
   style="fill:#0a234a"
   id="g432"
   transform="matrix(0.25,0,0,0.25,525,175)">

</g><g
   style="fill:#0a234a"
   id="g438"
   transform="matrix(0.25,0,0,0.25,575,175)">

</g><g
   style="fill:#0a234a"
   id="g444"
   transform="matrix(0.25,0,0,0.25,625,175)">

</g><g
   style="fill:#0a234a"
   id="g450"
   transform="matrix(0.25,0,0,0.25,675,175)">

</g><g
   style="fill:#0a234a"
   id="g456"
   transform="matrix(0.25,0,0,0.25,725,175)">

</g><g
   style="fill:#0a234a"
   id="g462"
   transform="matrix(0.25,0,0,0.25,800,175)">

</g><g
   style="fill:#0a234a"
   id="g468"
   transform="matrix(0.25,0,0,0.25,250,200)">

</g><g
   style="fill:#0a234a"
   id="g474"
   transform="matrix(0.25,0,0,0.25,300,200)">

</g><g
   style="fill:#0a234a"
   id="g480"
   transform="matrix(0.25,0,0,0.25,350,200)">

</g><g
   style="fill:#0a234a"
   id="g486"
   transform="matrix(0.25,0,0,0.25,400,200)">

</g><g
   style="fill:#0a234a"
   id="g492"
   transform="matrix(0.25,0,0,0.25,450,200)">

</g><g
   style="fill:#0a234a"
   id="g498"
   transform="matrix(0.25,0,0,0.25,500,200)">

</g><g
   style="fill:#0a234a"
   id="g504"
   transform="matrix(0.25,0,0,0.25,550,200)">

</g><g
   style="fill:#0a234a"
   id="g510"
   transform="matrix(0.25,0,0,0.25,600,200)">

</g><g
   style="fill:#0a234a"
   id="g516"
   transform="matrix(0.25,0,0,0.25,650,200)">

</g><g
   style="fill:#0a234a"
   id="g522"
   transform="matrix(0.25,0,0,0.25,700,200)">

</g><g
   style="fill:#0a234a"
   id="g528"
   transform="matrix(0.25,0,0,0.25,750,200)">

</g><g
   style="fill:#0a234a"
   id="g534"
   transform="matrix(0.25,0,0,0.25,800,200)">

</g><g
   style="fill:#0a234a"
   id="g540"
   transform="matrix(0.25,0,0,0.25,850,200)">

</g><g
   style="fill:#0a234a"
   id="g546"
   transform="matrix(0.25,0,0,0.25,250,225)">

</g><g
   style="fill:#0a234a"
   id="g552"
   transform="matrix(0.25,0,0,0.25,300,225)">

</g><g
   style="fill:#0a234a"
   id="g558"
   transform="matrix(0.25,0,0,0.25,325,225)">

</g><g
   style="fill:#0a234a"
   id="g564"
   transform="matrix(0.25,0,0,0.25,350,225)">

</g><g
   style="fill:#0a234a"
   id="g570"
   transform="matrix(0.25,0,0,0.25,375,225)">

</g><g
   style="fill:#0a234a"
   id="g576"
   transform="matrix(0.25,0,0,0.25,400,225)">

</g><g
   style="fill:#0a234a"
   id="g582"
   transform="matrix(0.25,0,0,0.25,450,225)">

</g><g
   style="fill:#0a234a"
   id="g588"
   transform="matrix(0.25,0,0,0.25,550,225)">

</g><g
   style="fill:#0a234a"
   id="g594"
   transform="matrix(0.25,0,0,0.25,650,225)">

</g><g
   style="fill:#0a234a"
   id="g600"
   transform="matrix(0.25,0,0,0.25,675,225)">

</g><g
   style="fill:#0a234a"
   id="g606"
   transform="matrix(0.25,0,0,0.25,700,225)">

</g><g
   style="fill:#0a234a"
   id="g612"
   transform="matrix(0.25,0,0,0.25,725,225)">

</g><g
   style="fill:#0a234a"
   id="g618"
   transform="matrix(0.25,0,0,0.25,825,225)">

</g><g
   style="fill:#0a234a"
   id="g624"
   transform="matrix(0.25,0,0,0.25,100,250)">

</g><g
   style="fill:#0a234a"
   id="g630"
   transform="matrix(0.25,0,0,0.25,125,250)">

</g><g
   style="fill:#0a234a"
   id="g636"
   transform="matrix(0.25,0,0,0.25,150,250)">

</g><g
   style="fill:#0a234a"
   id="g642"
   transform="matrix(0.25,0,0,0.25,200,250)">

</g><g
   style="fill:#0a234a"
   id="g648"
   transform="matrix(0.25,0,0,0.25,250,250)">

</g><g
   style="fill:#0a234a"
   id="g654"
   transform="matrix(0.25,0,0,0.25,275,250)">

</g><g
   style="fill:#0a234a"
   id="g660"
   transform="matrix(0.25,0,0,0.25,300,250)">

</g><g
   style="fill:#0a234a"
   id="g666"
   transform="matrix(0.25,0,0,0.25,325,250)">

</g><g
   style="fill:#0a234a"
   id="g672"
   transform="matrix(0.25,0,0,0.25,375,250)">

</g><g
   style="fill:#0a234a"
   id="g678"
   transform="matrix(0.25,0,0,0.25,500,250)">

</g><g
   style="fill:#0a234a"
   id="g684"
   transform="matrix(0.25,0,0,0.25,550,250)">

</g><g
   style="fill:#0a234a"
   id="g690"
   transform="matrix(0.25,0,0,0.25,600,250)">

</g><g
   style="fill:#0a234a"
   id="g696"
   transform="matrix(0.25,0,0,0.25,650,250)">

</g><g
   style="fill:#0a234a"
   id="g702"
   transform="matrix(0.25,0,0,0.25,675,250)">

</g><g
   style="fill:#0a234a"
   id="g708"
   transform="matrix(0.25,0,0,0.25,700,250)">

</g><g
   style="fill:#0a234a"
   id="g714"
   transform="matrix(0.25,0,0,0.25,725,250)">

</g><g
   style="fill:#0a234a"
   id="g720"
   transform="matrix(0.25,0,0,0.25,750,250)">

</g><g
   style="fill:#0a234a"
   id="g726"
   transform="matrix(0.25,0,0,0.25,775,250)">

</g><g
   style="fill:#0a234a"
   id="g732"
   transform="matrix(0.25,0,0,0.25,850,250)">

</g><g
   style="fill:#0a234a"
   id="g738"
   transform="matrix(0.25,0,0,0.25,875,250)">

</g><g
   style="fill:#0a234a"
   id="g744"
   transform="matrix(0.25,0,0,0.25,900,250)">

</g><g
   style="fill:#0a234a"
   id="g750"
   transform="matrix(0.25,0,0,0.25,925,250)">

</g><g
   style="fill:#0a234a"
   id="g756"
   transform="matrix(0.25,0,0,0.25,1000,250)">

</g><g
   style="fill:#0a234a"
   id="g762"
   transform="matrix(0.25,0,0,0.25,1025,250)">

</g><g
   style="fill:#0a234a"
   id="g768"
   transform="matrix(0.25,0,0,0.25,1050,250)">

</g><g
   style="fill:#0a234a"
   id="g774"
   transform="matrix(0.25,0,0,0.25,50,275)">

</g><g
   style="fill:#0a234a"
   id="g780"
   transform="matrix(0.25,0,0,0.25,100,275)">

</g><g
   style="fill:#0a234a"
   id="g786"
   transform="matrix(0.25,0,0,0.25,125,275)">

</g><g
   style="fill:#0a234a"
   id="g792"
   transform="matrix(0.25,0,0,0.25,150,275)">

</g><g
   style="fill:#0a234a"
   id="g798"
   transform="matrix(0.25,0,0,0.25,175,275)">

</g><g
   style="fill:#0a234a"
   id="g804"
   transform="matrix(0.25,0,0,0.25,300,275)">

</g><g
   style="fill:#0a234a"
   id="g810"
   transform="matrix(0.25,0,0,0.25,325,275)">

</g><g
   style="fill:#0a234a"
   id="g816"
   transform="matrix(0.25,0,0,0.25,350,275)">

</g><g
   style="fill:#0a234a"
   id="g822"
   transform="matrix(0.25,0,0,0.25,375,275)">

</g><g
   style="fill:#0a234a"
   id="g828"
   transform="matrix(0.25,0,0,0.25,400,275)">

</g><g
   style="fill:#0a234a"
   id="g834"
   transform="matrix(0.25,0,0,0.25,450,275)">

</g><g
   style="fill:#0a234a"
   id="g840"
   transform="matrix(0.25,0,0,0.25,500,275)">

</g><g
   style="fill:#0a234a"
   id="g846"
   transform="matrix(0.25,0,0,0.25,525,275)">

</g><g
   style="fill:#0a234a"
   id="g852"
   transform="matrix(0.25,0,0,0.25,600,275)">

</g><g
   style="fill:#0a234a"
   id="g858"
   transform="matrix(0.25,0,0,0.25,625,275)">

</g><g
   style="fill:#0a234a"
   id="g864"
   transform="matrix(0.25,0,0,0.25,675,275)">

</g><g
   style="fill:#0a234a"
   id="g870"
   transform="matrix(0.25,0,0,0.25,700,275)">

</g><g
   style="fill:#0a234a"
   id="g876"
   transform="matrix(0.25,0,0,0.25,750,275)">

</g><g
   style="fill:#0a234a"
   id="g882"
   transform="matrix(0.25,0,0,0.25,775,275)">

</g><g
   style="fill:#0a234a"
   id="g888"
   transform="matrix(0.25,0,0,0.25,800,275)">

</g><g
   style="fill:#0a234a"
   id="g894"
   transform="matrix(0.25,0,0,0.25,825,275)">

</g><g
   style="fill:#0a234a"
   id="g900"
   transform="matrix(0.25,0,0,0.25,850,275)">

</g><g
   style="fill:#0a234a"
   id="g906"
   transform="matrix(0.25,0,0,0.25,875,275)">

</g><g
   style="fill:#0a234a"
   id="g912"
   transform="matrix(0.25,0,0,0.25,900,275)">

</g><g
   style="fill:#0a234a"
   id="g918"
   transform="matrix(0.25,0,0,0.25,950,275)">

</g><g
   style="fill:#0a234a"
   id="g924"
   transform="matrix(0.25,0,0,0.25,1000,275)">

</g><g
   style="fill:#0a234a"
   id="g930"
   transform="matrix(0.25,0,0,0.25,1050,275)">

</g><g
   style="fill:#0a234a"
   id="g936"
   transform="matrix(0.25,0,0,0.25,75,300)">

</g><g
   style="fill:#0a234a"
   id="g942"
   transform="matrix(0.25,0,0,0.25,100,300)">

</g><g
   style="fill:#0a234a"
   id="g948"
   transform="matrix(0.25,0,0,0.25,175,300)">

</g><g
   style="fill:#0a234a"
   id="g954"
   transform="matrix(0.25,0,0,0.25,200,300)">

</g><g
   style="fill:#0a234a"
   id="g960"
   transform="matrix(0.25,0,0,0.25,225,300)">

</g><g
   style="fill:#0a234a"
   id="g966"
   transform="matrix(0.25,0,0,0.25,250,300)">

</g><g
   style="fill:#0a234a"
   id="g972"
   transform="matrix(0.25,0,0,0.25,275,300)">

</g><g
   style="fill:#0a234a"
   id="g978"
   transform="matrix(0.25,0,0,0.25,400,300)">

</g><g
   style="fill:#0a234a"
   id="g984"
   transform="matrix(0.25,0,0,0.25,425,300)">

</g><g
   style="fill:#0a234a"
   id="g990"
   transform="matrix(0.25,0,0,0.25,450,300)">

</g><g
   style="fill:#0a234a"
   id="g996"
   transform="matrix(0.25,0,0,0.25,525,300)">

</g><g
   style="fill:#0a234a"
   id="g1002"
   transform="matrix(0.25,0,0,0.25,625,300)">

</g><g
   style="fill:#0a234a"
   id="g1008"
   transform="matrix(0.25,0,0,0.25,650,300)">

</g><g
   style="fill:#0a234a"
   id="g1014"
   transform="matrix(0.25,0,0,0.25,700,300)">

</g><g
   style="fill:#0a234a"
   id="g1020"
   transform="matrix(0.25,0,0,0.25,725,300)">

</g><g
   style="fill:#0a234a"
   id="g1026"
   transform="matrix(0.25,0,0,0.25,750,300)">

</g><g
   style="fill:#0a234a"
   id="g1032"
   transform="matrix(0.25,0,0,0.25,775,300)">

</g><g
   style="fill:#0a234a"
   id="g1038"
   transform="matrix(0.25,0,0,0.25,850,300)">

</g><g
   style="fill:#0a234a"
   id="g1044"
   transform="matrix(0.25,0,0,0.25,900,300)">

</g><g
   style="fill:#0a234a"
   id="g1050"
   transform="matrix(0.25,0,0,0.25,925,300)">

</g><g
   style="fill:#0a234a"
   id="g1056"
   transform="matrix(0.25,0,0,0.25,50,325)">

</g><g
   style="fill:#0a234a"
   id="g1062"
   transform="matrix(0.25,0,0,0.25,100,325)">

</g><g
   style="fill:#0a234a"
   id="g1068"
   transform="matrix(0.25,0,0,0.25,150,325)">

</g><g
   style="fill:#0a234a"
   id="g1074"
   transform="matrix(0.25,0,0,0.25,225,325)">

</g><g
   style="fill:#0a234a"
   id="g1080"
   transform="matrix(0.25,0,0,0.25,250,325)">

</g><g
   style="fill:#0a234a"
   id="g1086"
   transform="matrix(0.25,0,0,0.25,300,325)">

</g><g
   style="fill:#0a234a"
   id="g1092"
   transform="matrix(0.25,0,0,0.25,350,325)">

</g><g
   style="fill:#0a234a"
   id="g1098"
   transform="matrix(0.25,0,0,0.25,450,325)">

</g><g
   style="fill:#0a234a"
   id="g1104"
   transform="matrix(0.25,0,0,0.25,475,325)">

</g><g
   style="fill:#0a234a"
   id="g1110"
   transform="matrix(0.25,0,0,0.25,500,325)">

</g><g
   style="fill:#0a234a"
   id="g1116"
   transform="matrix(0.25,0,0,0.25,525,325)">

</g><g
   style="fill:#0a234a"
   id="g1122"
   transform="matrix(0.25,0,0,0.25,600,325)">

</g><g
   style="fill:#0a234a"
   id="g1128"
   transform="matrix(0.25,0,0,0.25,700,325)">

</g><g
   style="fill:#0a234a"
   id="g1134"
   transform="matrix(0.25,0,0,0.25,725,325)">

</g><g
   style="fill:#0a234a"
   id="g1140"
   transform="matrix(0.25,0,0,0.25,800,325)">

</g><g
   style="fill:#0a234a"
   id="g1146"
   transform="matrix(0.25,0,0,0.25,825,325)">

</g><g
   style="fill:#0a234a"
   id="g1152"
   transform="matrix(0.25,0,0,0.25,850,325)">

</g><g
   style="fill:#0a234a"
   id="g1158"
   transform="matrix(0.25,0,0,0.25,875,325)">

</g><g
   style="fill:#0a234a"
   id="g1164"
   transform="matrix(0.25,0,0,0.25,900,325)">

</g><g
   style="fill:#0a234a"
   id="g1170"
   transform="matrix(0.25,0,0,0.25,950,325)">

</g><g
   style="fill:#0a234a"
   id="g1176"
   transform="matrix(0.25,0,0,0.25,975,325)">

</g><g
   style="fill:#0a234a"
   id="g1182"
   transform="matrix(0.25,0,0,0.25,1025,325)">

</g><g
   style="fill:#0a234a"
   id="g1188"
   transform="matrix(0.25,0,0,0.25,1050,325)">

</g><g
   style="fill:#0a234a"
   id="g1194"
   transform="matrix(0.25,0,0,0.25,75,350)">

</g><g
   style="fill:#0a234a"
   id="g1200"
   transform="matrix(0.25,0,0,0.25,100,350)">

</g><g
   style="fill:#0a234a"
   id="g1206"
   transform="matrix(0.25,0,0,0.25,150,350)">

</g><g
   style="fill:#0a234a"
   id="g1212"
   transform="matrix(0.25,0,0,0.25,200,350)">

</g><g
   style="fill:#0a234a"
   id="g1218"
   transform="matrix(0.25,0,0,0.25,225,350)">

</g><g
   style="fill:#0a234a"
   id="g1224"
   transform="matrix(0.25,0,0,0.25,275,350)">

</g><g
   style="fill:#0a234a"
   id="g1230"
   transform="matrix(0.25,0,0,0.25,300,350)">

</g><g
   style="fill:#0a234a"
   id="g1236"
   transform="matrix(0.25,0,0,0.25,325,350)">

</g><g
   style="fill:#0a234a"
   id="g1242"
   transform="matrix(0.25,0,0,0.25,350,350)">

</g><g
   style="fill:#0a234a"
   id="g1248"
   transform="matrix(0.25,0,0,0.25,425,350)">

</g><g
   style="fill:#0a234a"
   id="g1254"
   transform="matrix(0.25,0,0,0.25,450,350)">

</g><g
   style="fill:#0a234a"
   id="g1260"
   transform="matrix(0.25,0,0,0.25,575,350)">

</g><g
   style="fill:#0a234a"
   id="g1266"
   transform="matrix(0.25,0,0,0.25,600,350)">

</g><g
   style="fill:#0a234a"
   id="g1272"
   transform="matrix(0.25,0,0,0.25,675,350)">

</g><g
   style="fill:#0a234a"
   id="g1278"
   transform="matrix(0.25,0,0,0.25,700,350)">

</g><g
   style="fill:#0a234a"
   id="g1284"
   transform="matrix(0.25,0,0,0.25,725,350)">

</g><g
   style="fill:#0a234a"
   id="g1290"
   transform="matrix(0.25,0,0,0.25,775,350)">

</g><g
   style="fill:#0a234a"
   id="g1296"
   transform="matrix(0.25,0,0,0.25,825,350)">

</g><g
   style="fill:#0a234a"
   id="g1302"
   transform="matrix(0.25,0,0,0.25,850,350)">

</g><g
   style="fill:#0a234a"
   id="g1308"
   transform="matrix(0.25,0,0,0.25,900,350)">

</g><g
   style="fill:#0a234a"
   id="g1314"
   transform="matrix(0.25,0,0,0.25,925,350)">

</g><g
   style="fill:#0a234a"
   id="g1320"
   transform="matrix(0.25,0,0,0.25,975,350)">

</g><g
   style="fill:#0a234a"
   id="g1326"
   transform="matrix(0.25,0,0,0.25,1000,350)">

</g><g
   style="fill:#0a234a"
   id="g1332"
   transform="matrix(0.25,0,0,0.25,1050,350)">

</g><g
   style="fill:#0a234a"
   id="g1338"
   transform="matrix(0.25,0,0,0.25,50,375)">

</g><g
   style="fill:#0a234a"
   id="g1344"
   transform="matrix(0.25,0,0,0.25,125,375)">

</g><g
   style="fill:#0a234a"
   id="g1350"
   transform="matrix(0.25,0,0,0.25,150,375)">

</g><g
   style="fill:#0a234a"
   id="g1356"
   transform="matrix(0.25,0,0,0.25,175,375)">

</g><g
   style="fill:#0a234a"
   id="g1362"
   transform="matrix(0.25,0,0,0.25,250,375)">

</g><g
   style="fill:#0a234a"
   id="g1368"
   transform="matrix(0.25,0,0,0.25,300,375)">

</g><g
   style="fill:#0a234a"
   id="g1374"
   transform="matrix(0.25,0,0,0.25,450,375)">

</g><g
   style="fill:#0a234a"
   id="g1380"
   transform="matrix(0.25,0,0,0.25,475,375)">

</g><g
   style="fill:#0a234a"
   id="g1386"
   transform="matrix(0.25,0,0,0.25,550,375)">

</g><g
   style="fill:#0a234a"
   id="g1392"
   transform="matrix(0.25,0,0,0.25,575,375)">

</g><g
   style="fill:#0a234a"
   id="g1398"
   transform="matrix(0.25,0,0,0.25,600,375)">

</g><g
   style="fill:#0a234a"
   id="g1404"
   transform="matrix(0.25,0,0,0.25,625,375)">

</g><g
   style="fill:#0a234a"
   id="g1410"
   transform="matrix(0.25,0,0,0.25,650,375)">

</g><g
   style="fill:#0a234a"
   id="g1416"
   transform="matrix(0.25,0,0,0.25,675,375)">

</g><g
   style="fill:#0a234a"
   id="g1422"
   transform="matrix(0.25,0,0,0.25,700,375)">

</g><g
   style="fill:#0a234a"
   id="g1428"
   transform="matrix(0.25,0,0,0.25,725,375)">

</g><g
   style="fill:#0a234a"
   id="g1434"
   transform="matrix(0.25,0,0,0.25,750,375)">

</g><g
   style="fill:#0a234a"
   id="g1440"
   transform="matrix(0.25,0,0,0.25,800,375)">

</g><g
   style="fill:#0a234a"
   id="g1446"
   transform="matrix(0.25,0,0,0.25,875,375)">

</g><g
   style="fill:#0a234a"
   id="g1452"
   transform="matrix(0.25,0,0,0.25,925,375)">

</g><g
   style="fill:#0a234a"
   id="g1458"
   transform="matrix(0.25,0,0,0.25,950,375)">

</g><g
   style="fill:#0a234a"
   id="g1464"
   transform="matrix(0.25,0,0,0.25,1000,375)">

</g><g
   style="fill:#0a234a"
   id="g1470"
   transform="matrix(0.25,0,0,0.25,1050,375)">

</g><g
   style="fill:#0a234a"
   id="g1476"
   transform="matrix(0.25,0,0,0.25,100,400)">

</g><g
   style="fill:#0a234a"
   id="g1482"
   transform="matrix(0.25,0,0,0.25,125,400)">

</g><g
   style="fill:#0a234a"
   id="g1488"
   transform="matrix(0.25,0,0,0.25,150,400)">

</g><g
   style="fill:#0a234a"
   id="g1494"
   transform="matrix(0.25,0,0,0.25,200,400)">

</g><g
   style="fill:#0a234a"
   id="g1500"
   transform="matrix(0.25,0,0,0.25,225,400)">

</g><g
   style="fill:#0a234a"
   id="g1506"
   transform="matrix(0.25,0,0,0.25,275,400)">

</g><g
   style="fill:#0a234a"
   id="g1512"
   transform="matrix(0.25,0,0,0.25,300,400)">

</g><g
   style="fill:#0a234a"
   id="g1518"
   transform="matrix(0.25,0,0,0.25,325,400)">

</g><g
   style="fill:#0a234a"
   id="g1524"
   transform="matrix(0.25,0,0,0.25,350,400)">

</g><g
   style="fill:#0a234a"
   id="g1530"
   transform="matrix(0.25,0,0,0.25,375,400)">

</g><g
   style="fill:#0a234a"
   id="g1536"
   transform="matrix(0.25,0,0,0.25,400,400)">

</g><g
   style="fill:#0a234a"
   id="g1542"
   transform="matrix(0.25,0,0,0.25,425,400)">

</g><g
   style="fill:#0a234a"
   id="g1548"
   transform="matrix(0.25,0,0,0.25,525,400)">

</g><g
   style="fill:#0a234a"
   id="g1554"
   transform="matrix(0.25,0,0,0.25,550,400)">

</g><g
   style="fill:#0a234a"
   id="g1560"
   transform="matrix(0.25,0,0,0.25,650,400)">

</g><g
   style="fill:#0a234a"
   id="g1566"
   transform="matrix(0.25,0,0,0.25,800,400)">

</g><g
   style="fill:#0a234a"
   id="g1572"
   transform="matrix(0.25,0,0,0.25,850,400)">

</g><g
   style="fill:#0a234a"
   id="g1578"
   transform="matrix(0.25,0,0,0.25,875,400)">

</g><g
   style="fill:#0a234a"
   id="g1584"
   transform="matrix(0.25,0,0,0.25,925,400)">

</g><g
   style="fill:#0a234a"
   id="g1590"
   transform="matrix(0.25,0,0,0.25,950,400)">

</g><g
   style="fill:#0a234a"
   id="g1596"
   transform="matrix(0.25,0,0,0.25,975,400)">

</g><g
   style="fill:#0a234a"
   id="g1602"
   transform="matrix(0.25,0,0,0.25,75,425)">

</g><g
   style="fill:#0a234a"
   id="g1608"
   transform="matrix(0.25,0,0,0.25,175,425)">

</g><g
   style="fill:#0a234a"
   id="g1614"
   transform="matrix(0.25,0,0,0.25,225,425)">

</g><g
   style="fill:#0a234a"
   id="g1620"
   transform="matrix(0.25,0,0,0.25,250,425)">

</g><g
   style="fill:#0a234a"
   id="g1626"
   transform="matrix(0.25,0,0,0.25,275,425)">

</g><g
   style="fill:#0a234a"
   id="g1632"
   transform="matrix(0.25,0,0,0.25,300,425)">

</g><g
   style="fill:#0a234a"
   id="g1638"
   transform="matrix(0.25,0,0,0.25,350,425)">

</g><g
   style="fill:#0a234a"
   id="g1686"
   transform="matrix(0.25,0,0,0.25,750,425)">

</g><g
   style="fill:#0a234a"
   id="g1692"
   transform="matrix(0.25,0,0,0.25,800,425)">

</g><g
   style="fill:#0a234a"
   id="g1698"
   transform="matrix(0.25,0,0,0.25,900,425)">

</g><g
   style="fill:#0a234a"
   id="g1704"
   transform="matrix(0.25,0,0,0.25,1050,425)">

</g><g
   style="fill:#0a234a"
   id="g1710"
   transform="matrix(0.25,0,0,0.25,100,450)">

</g><g
   style="fill:#0a234a"
   id="g1716"
   transform="matrix(0.25,0,0,0.25,125,450)">

</g><g
   style="fill:#0a234a"
   id="g1722"
   transform="matrix(0.25,0,0,0.25,175,450)">

</g><g
   style="fill:#0a234a"
   id="g1728"
   transform="matrix(0.25,0,0,0.25,200,450)">

</g><g
   style="fill:#0a234a"
   id="g1734"
   transform="matrix(0.25,0,0,0.25,225,450)">

</g><g
   style="fill:#0a234a"
   id="g1740"
   transform="matrix(0.25,0,0,0.25,250,450)">

</g><g
   style="fill:#0a234a"
   id="g1746"
   transform="matrix(0.25,0,0,0.25,325,450)">

</g><g
   style="fill:#0a234a"
   id="g1752"
   transform="matrix(0.25,0,0,0.25,350,450)">

</g><g
   style="fill:#0a234a"
   id="g1800"
   transform="matrix(0.25,0,0,0.25,775,450)">

</g><g
   style="fill:#0a234a"
   id="g1806"
   transform="matrix(0.25,0,0,0.25,875,450)">

</g><g
   style="fill:#0a234a"
   id="g1812"
   transform="matrix(0.25,0,0,0.25,925,450)">

</g><g
   style="fill:#0a234a"
   id="g1818"
   transform="matrix(0.25,0,0,0.25,1000,450)">

</g><g
   style="fill:#0a234a"
   id="g1824"
   transform="matrix(0.25,0,0,0.25,1025,450)">

</g><g
   style="fill:#0a234a"
   id="g1830"
   transform="matrix(0.25,0,0,0.25,50,475)">

</g><g
   style="fill:#0a234a"
   id="g1836"
   transform="matrix(0.25,0,0,0.25,100,475)">

</g><g
   style="fill:#0a234a"
   id="g1842"
   transform="matrix(0.25,0,0,0.25,125,475)">

</g><g
   style="fill:#0a234a"
   id="g1848"
   transform="matrix(0.25,0,0,0.25,150,475)">

</g><g
   style="fill:#0a234a"
   id="g1854"
   transform="matrix(0.25,0,0,0.25,225,475)">

</g><g
   style="fill:#0a234a"
   id="g1860"
   transform="matrix(0.25,0,0,0.25,250,475)">

</g><g
   style="fill:#0a234a"
   id="g1866"
   transform="matrix(0.25,0,0,0.25,300,475)">

</g><g
   style="fill:#0a234a"
   id="g1872"
   transform="matrix(0.25,0,0,0.25,325,475)">

</g><g
   style="fill:#0a234a"
   id="g1908"
   transform="matrix(0.25,0,0,0.25,750,475)">

</g><g
   style="fill:#0a234a"
   id="g1914"
   transform="matrix(0.25,0,0,0.25,800,475)">

</g><g
   style="fill:#0a234a"
   id="g1920"
   transform="matrix(0.25,0,0,0.25,850,475)">

</g><g
   style="fill:#0a234a"
   id="g1926"
   transform="matrix(0.25,0,0,0.25,900,475)">

</g><g
   style="fill:#0a234a"
   id="g1932"
   transform="matrix(0.25,0,0,0.25,925,475)">

</g><g
   style="fill:#0a234a"
   id="g1938"
   transform="matrix(0.25,0,0,0.25,950,475)">

</g><g
   style="fill:#0a234a"
   id="g1944"
   transform="matrix(0.25,0,0,0.25,975,475)">

</g><g
   style="fill:#0a234a"
   id="g1950"
   transform="matrix(0.25,0,0,0.25,1050,475)">

</g><g
   style="fill:#0a234a"
   id="g1956"
   transform="matrix(0.25,0,0,0.25,50,500)">

</g><g
   style="fill:#0a234a"
   id="g1962"
   transform="matrix(0.25,0,0,0.25,100,500)">

</g><g
   style="fill:#0a234a"
   id="g1968"
   transform="matrix(0.25,0,0,0.25,125,500)">

</g><g
   style="fill:#0a234a"
   id="g1974"
   transform="matrix(0.25,0,0,0.25,175,500)">

</g><g
   style="fill:#0a234a"
   id="g1980"
   transform="matrix(0.25,0,0,0.25,200,500)">

</g><g
   style="fill:#0a234a"
   id="g1986"
   transform="matrix(0.25,0,0,0.25,250,500)">

</g><g
   style="fill:#0a234a"
   id="g1992"
   transform="matrix(0.25,0,0,0.25,350,500)">

</g><g
   style="fill:#0a234a"
   id="g2046"
   transform="matrix(0.25,0,0,0.25,800,500)">

</g><g
   style="fill:#0a234a"
   id="g2052"
   transform="matrix(0.25,0,0,0.25,950,500)">

</g><g
   style="fill:#0a234a"
   id="g2058"
   transform="matrix(0.25,0,0,0.25,50,525)">

</g><g
   style="fill:#0a234a"
   id="g2064"
   transform="matrix(0.25,0,0,0.25,100,525)">

</g><g
   style="fill:#0a234a"
   id="g2070"
   transform="matrix(0.25,0,0,0.25,125,525)">

</g><g
   style="fill:#0a234a"
   id="g2076"
   transform="matrix(0.25,0,0,0.25,150,525)">

</g><g
   style="fill:#0a234a"
   id="g2082"
   transform="matrix(0.25,0,0,0.25,175,525)">

</g><g
   style="fill:#0a234a"
   id="g2088"
   transform="matrix(0.25,0,0,0.25,225,525)">

</g><g
   style="fill:#0a234a"
   id="g2094"
   transform="matrix(0.25,0,0,0.25,300,525)">

</g><g
   style="fill:#0a234a"
   id="g2100"
   transform="matrix(0.25,0,0,0.25,350,525)">

</g><g
   style="fill:#0a234a"
   id="g2154"
   transform="matrix(0.25,0,0,0.25,750,525)">

</g><g
   style="fill:#0a234a"
   id="g2160"
   transform="matrix(0.25,0,0,0.25,825,525)">

</g><g
   style="fill:#0a234a"
   id="g2166"
   transform="matrix(0.25,0,0,0.25,875,525)">

</g><g
   style="fill:#0a234a"
   id="g2172"
   transform="matrix(0.25,0,0,0.25,950,525)">

</g><g
   style="fill:#0a234a"
   id="g2178"
   transform="matrix(0.25,0,0,0.25,975,525)">

</g><g
   style="fill:#0a234a"
   id="g2184"
   transform="matrix(0.25,0,0,0.25,1025,525)">

</g><g
   style="fill:#0a234a"
   id="g2190"
   transform="matrix(0.25,0,0,0.25,75,550)">

</g><g
   style="fill:#0a234a"
   id="g2196"
   transform="matrix(0.25,0,0,0.25,100,550)">

</g><g
   style="fill:#0a234a"
   id="g2202"
   transform="matrix(0.25,0,0,0.25,125,550)">

</g><g
   style="fill:#0a234a"
   id="g2208"
   transform="matrix(0.25,0,0,0.25,150,550)">

</g><g
   style="fill:#0a234a"
   id="g2214"
   transform="matrix(0.25,0,0,0.25,175,550)">

</g><g
   style="fill:#0a234a"
   id="g2220"
   transform="matrix(0.25,0,0,0.25,200,550)">

</g><g
   style="fill:#0a234a"
   id="g2226"
   transform="matrix(0.25,0,0,0.25,225,550)">

</g><g
   style="fill:#0a234a"
   id="g2232"
   transform="matrix(0.25,0,0,0.25,275,550)">

</g><g
   style="fill:#0a234a"
   id="g2238"
   transform="matrix(0.25,0,0,0.25,350,550)">

</g><g
   style="fill:#0a234a"
   id="g2286"
   transform="matrix(0.25,0,0,0.25,750,550)">

</g><g
   style="fill:#0a234a"
   id="g2292"
   transform="matrix(0.25,0,0,0.25,800,550)">

</g><g
   style="fill:#0a234a"
   id="g2298"
   transform="matrix(0.25,0,0,0.25,825,550)">

</g><g
   style="fill:#0a234a"
   id="g2304"
   transform="matrix(0.25,0,0,0.25,950,550)">

</g><g
   style="fill:#0a234a"
   id="g2310"
   transform="matrix(0.25,0,0,0.25,1000,550)">

</g><g
   style="fill:#0a234a"
   id="g2316"
   transform="matrix(0.25,0,0,0.25,1025,550)">

</g><g
   style="fill:#0a234a"
   id="g2322"
   transform="matrix(0.25,0,0,0.25,1050,550)">

</g><g
   style="fill:#0a234a"
   id="g2328"
   transform="matrix(0.25,0,0,0.25,100,575)">

</g><g
   style="fill:#0a234a"
   id="g2334"
   transform="matrix(0.25,0,0,0.25,125,575)">

</g><g
   style="fill:#0a234a"
   id="g2340"
   transform="matrix(0.25,0,0,0.25,225,575)">

</g><g
   style="fill:#0a234a"
   id="g2346"
   transform="matrix(0.25,0,0,0.25,275,575)">

</g><g
   style="fill:#0a234a"
   id="g2352"
   transform="matrix(0.25,0,0,0.25,300,575)">

</g><g
   style="fill:#0a234a"
   id="g2358"
   transform="matrix(0.25,0,0,0.25,325,575)">

</g><g
   style="fill:#0a234a"
   id="g2406"
   transform="matrix(0.25,0,0,0.25,750,575)">

</g><g
   style="fill:#0a234a"
   id="g2412"
   transform="matrix(0.25,0,0,0.25,775,575)">

</g><g
   style="fill:#0a234a"
   id="g2418"
   transform="matrix(0.25,0,0,0.25,825,575)">

</g><g
   style="fill:#0a234a"
   id="g2424"
   transform="matrix(0.25,0,0,0.25,850,575)">

</g><g
   style="fill:#0a234a"
   id="g2430"
   transform="matrix(0.25,0,0,0.25,875,575)">

</g><g
   style="fill:#0a234a"
   id="g2436"
   transform="matrix(0.25,0,0,0.25,900,575)">

</g><g
   style="fill:#0a234a"
   id="g2442"
   transform="matrix(0.25,0,0,0.25,950,575)">

</g><g
   style="fill:#0a234a"
   id="g2448"
   transform="matrix(0.25,0,0,0.25,1025,575)">

</g><g
   style="fill:#0a234a"
   id="g2454"
   transform="matrix(0.25,0,0,0.25,1050,575)">

</g><g
   style="fill:#0a234a"
   id="g2460"
   transform="matrix(0.25,0,0,0.25,175,600)">

</g><g
   style="fill:#0a234a"
   id="g2466"
   transform="matrix(0.25,0,0,0.25,200,600)">

</g><g
   style="fill:#0a234a"
   id="g2472"
   transform="matrix(0.25,0,0,0.25,225,600)">

</g><g
   style="fill:#0a234a"
   id="g2478"
   transform="matrix(0.25,0,0,0.25,250,600)">

</g><g
   style="fill:#0a234a"
   id="g2484"
   transform="matrix(0.25,0,0,0.25,300,600)">

</g><g
   style="fill:#0a234a"
   id="g2490"
   transform="matrix(0.25,0,0,0.25,350,600)">

</g><g
   style="fill:#0a234a"
   id="g2562"
   transform="matrix(0.25,0,0,0.25,750,600)">

</g><g
   style="fill:#0a234a"
   id="g2568"
   transform="matrix(0.25,0,0,0.25,775,600)">

</g><g
   style="fill:#0a234a"
   id="g2574"
   transform="matrix(0.25,0,0,0.25,850,600)">

</g><g
   style="fill:#0a234a"
   id="g2580"
   transform="matrix(0.25,0,0,0.25,900,600)">

</g><g
   style="fill:#0a234a"
   id="g2586"
   transform="matrix(0.25,0,0,0.25,50,625)">

</g><g
   style="fill:#0a234a"
   id="g2592"
   transform="matrix(0.25,0,0,0.25,75,625)">

</g><g
   style="fill:#0a234a"
   id="g2598"
   transform="matrix(0.25,0,0,0.25,100,625)">

</g><g
   style="fill:#0a234a"
   id="g2604"
   transform="matrix(0.25,0,0,0.25,125,625)">

</g><g
   style="fill:#0a234a"
   id="g2610"
   transform="matrix(0.25,0,0,0.25,250,625)">

</g><g
   style="fill:#0a234a"
   id="g2616"
   transform="matrix(0.25,0,0,0.25,300,625)">

</g><g
   style="fill:#0a234a"
   id="g2652"
   transform="matrix(0.25,0,0,0.25,750,625)">

</g><g
   style="fill:#0a234a"
   id="g2658"
   transform="matrix(0.25,0,0,0.25,850,625)">

</g><g
   style="fill:#0a234a"
   id="g2664"
   transform="matrix(0.25,0,0,0.25,900,625)">

</g><g
   style="fill:#0a234a"
   id="g2670"
   transform="matrix(0.25,0,0,0.25,925,625)">

</g><g
   style="fill:#0a234a"
   id="g2676"
   transform="matrix(0.25,0,0,0.25,950,625)">

</g><g
   style="fill:#0a234a"
   id="g2682"
   transform="matrix(0.25,0,0,0.25,975,625)">

</g><g
   style="fill:#0a234a"
   id="g2688"
   transform="matrix(0.25,0,0,0.25,1025,625)">

</g><g
   style="fill:#0a234a"
   id="g2694"
   transform="matrix(0.25,0,0,0.25,100,650)">

</g><g
   style="fill:#0a234a"
   id="g2700"
   transform="matrix(0.25,0,0,0.25,125,650)">

</g><g
   style="fill:#0a234a"
   id="g2706"
   transform="matrix(0.25,0,0,0.25,175,650)">

</g><g
   style="fill:#0a234a"
   id="g2712"
   transform="matrix(0.25,0,0,0.25,200,650)">

</g><g
   style="fill:#0a234a"
   id="g2718"
   transform="matrix(0.25,0,0,0.25,350,650)">

</g><g
   style="fill:#0a234a"
   id="g2766"
   transform="matrix(0.25,0,0,0.25,775,650)">

</g><g
   style="fill:#0a234a"
   id="g2772"
   transform="matrix(0.25,0,0,0.25,925,650)">

</g><g
   style="fill:#0a234a"
   id="g2778"
   transform="matrix(0.25,0,0,0.25,1000,650)">

</g><g
   style="fill:#0a234a"
   id="g2784"
   transform="matrix(0.25,0,0,0.25,1025,650)">

</g><g
   style="fill:#0a234a"
   id="g2790"
   transform="matrix(0.25,0,0,0.25,100,675)">

</g><g
   style="fill:#0a234a"
   id="g2796"
   transform="matrix(0.25,0,0,0.25,150,675)">

</g><g
   style="fill:#0a234a"
   id="g2802"
   transform="matrix(0.25,0,0,0.25,175,675)">

</g><g
   style="fill:#0a234a"
   id="g2808"
   transform="matrix(0.25,0,0,0.25,225,675)">

</g><g
   style="fill:#0a234a"
   id="g2814"
   transform="matrix(0.25,0,0,0.25,250,675)">

</g><g
   style="fill:#0a234a"
   id="g2820"
   transform="matrix(0.25,0,0,0.25,300,675)">

</g><g
   style="fill:#0a234a"
   id="g2826"
   transform="matrix(0.25,0,0,0.25,325,675)">

</g><g
   style="fill:#0a234a"
   id="g2832"
   transform="matrix(0.25,0,0,0.25,350,675)">

</g><g
   style="fill:#0a234a"
   id="g2886"
   transform="matrix(0.25,0,0,0.25,750,675)">

</g><g
   style="fill:#0a234a"
   id="g2892"
   transform="matrix(0.25,0,0,0.25,775,675)">

</g><g
   style="fill:#0a234a"
   id="g2898"
   transform="matrix(0.25,0,0,0.25,825,675)">

</g><g
   style="fill:#0a234a"
   id="g2904"
   transform="matrix(0.25,0,0,0.25,875,675)">

</g><g
   style="fill:#0a234a"
   id="g2910"
   transform="matrix(0.25,0,0,0.25,925,675)">

</g><g
   style="fill:#0a234a"
   id="g2916"
   transform="matrix(0.25,0,0,0.25,950,675)">

</g><g
   style="fill:#0a234a"
   id="g2922"
   transform="matrix(0.25,0,0,0.25,975,675)">

</g><g
   style="fill:#0a234a"
   id="g2928"
   transform="matrix(0.25,0,0,0.25,1025,675)">

</g><g
   style="fill:#0a234a"
   id="g2934"
   transform="matrix(0.25,0,0,0.25,1050,675)">

</g><g
   style="fill:#0a234a"
   id="g2940"
   transform="matrix(0.25,0,0,0.25,100,700)">

</g><g
   style="fill:#0a234a"
   id="g2946"
   transform="matrix(0.25,0,0,0.25,150,700)">

</g><g
   style="fill:#0a234a"
   id="g2952"
   transform="matrix(0.25,0,0,0.25,175,700)">

</g><g
   style="fill:#0a234a"
   id="g2958"
   transform="matrix(0.25,0,0,0.25,200,700)">

</g><g
   style="fill:#0a234a"
   id="g2964"
   transform="matrix(0.25,0,0,0.25,225,700)">

</g><g
   style="fill:#0a234a"
   id="g2970"
   transform="matrix(0.25,0,0,0.25,250,700)">

</g><g
   style="fill:#0a234a"
   id="g2976"
   transform="matrix(0.25,0,0,0.25,350,700)">

</g><g
   style="fill:#0a234a"
   id="g2982"
   transform="matrix(0.25,0,0,0.25,400,700)">

</g><g
   style="fill:#0a234a"
   id="g2988"
   transform="matrix(0.25,0,0,0.25,425,700)">

</g><g
   style="fill:#0a234a"
   id="g2994"
   transform="matrix(0.25,0,0,0.25,475,700)">

</g><g
   style="fill:#0a234a"
   id="g3000"
   transform="matrix(0.25,0,0,0.25,525,700)">

</g><g
   style="fill:#0a234a"
   id="g3006"
   transform="matrix(0.25,0,0,0.25,575,700)">

</g><g
   style="fill:#0a234a"
   id="g3012"
   transform="matrix(0.25,0,0,0.25,650,700)">

</g><g
   style="fill:#0a234a"
   id="g3018"
   transform="matrix(0.25,0,0,0.25,725,700)">

</g><g
   style="fill:#0a234a"
   id="g3024"
   transform="matrix(0.25,0,0,0.25,800,700)">

</g><g
   style="fill:#0a234a"
   id="g3030"
   transform="matrix(0.25,0,0,0.25,850,700)">

</g><g
   style="fill:#0a234a"
   id="g3036"
   transform="matrix(0.25,0,0,0.25,875,700)">

</g><g
   style="fill:#0a234a"
   id="g3042"
   transform="matrix(0.25,0,0,0.25,1025,700)">

</g><g
   style="fill:#0a234a"
   id="g3048"
   transform="matrix(0.25,0,0,0.25,100,725)">

</g><g
   style="fill:#0a234a"
   id="g3054"
   transform="matrix(0.25,0,0,0.25,150,725)">

</g><g
   style="fill:#0a234a"
   id="g3060"
   transform="matrix(0.25,0,0,0.25,175,725)">

</g><g
   style="fill:#0a234a"
   id="g3066"
   transform="matrix(0.25,0,0,0.25,225,725)">

</g><g
   style="fill:#0a234a"
   id="g3072"
   transform="matrix(0.25,0,0,0.25,275,725)">

</g><g
   style="fill:#0a234a"
   id="g3078"
   transform="matrix(0.25,0,0,0.25,300,725)">

</g><g
   style="fill:#0a234a"
   id="g3084"
   transform="matrix(0.25,0,0,0.25,350,725)">

</g><g
   style="fill:#0a234a"
   id="g3090"
   transform="matrix(0.25,0,0,0.25,375,725)">

</g><g
   style="fill:#0a234a"
   id="g3096"
   transform="matrix(0.25,0,0,0.25,400,725)">

</g><g
   style="fill:#0a234a"
   id="g3102"
   transform="matrix(0.25,0,0,0.25,450,725)">

</g><g
   style="fill:#0a234a"
   id="g3108"
   transform="matrix(0.25,0,0,0.25,525,725)">

</g><g
   style="fill:#0a234a"
   id="g3114"
   transform="matrix(0.25,0,0,0.25,575,725)">

</g><g
   style="fill:#0a234a"
   id="g3120"
   transform="matrix(0.25,0,0,0.25,650,725)">

</g><g
   style="fill:#0a234a"
   id="g3126"
   transform="matrix(0.25,0,0,0.25,675,725)">

</g><g
   style="fill:#0a234a"
   id="g3132"
   transform="matrix(0.25,0,0,0.25,700,725)">

</g><g
   style="fill:#0a234a"
   id="g3138"
   transform="matrix(0.25,0,0,0.25,725,725)">

</g><g
   style="fill:#0a234a"
   id="g3144"
   transform="matrix(0.25,0,0,0.25,750,725)">

</g><g
   style="fill:#0a234a"
   id="g3150"
   transform="matrix(0.25,0,0,0.25,825,725)">

</g><g
   style="fill:#0a234a"
   id="g3156"
   transform="matrix(0.25,0,0,0.25,850,725)">

</g><g
   style="fill:#0a234a"
   id="g3162"
   transform="matrix(0.25,0,0,0.25,950,725)">

</g><g
   style="fill:#0a234a"
   id="g3168"
   transform="matrix(0.25,0,0,0.25,975,725)">

</g><g
   style="fill:#0a234a"
   id="g3174"
   transform="matrix(0.25,0,0,0.25,1025,725)">

</g><g
   style="fill:#0a234a"
   id="g3180"
   transform="matrix(0.25,0,0,0.25,1050,725)">

</g><g
   style="fill:#0a234a"
   id="g3186"
   transform="matrix(0.25,0,0,0.25,150,750)">

</g><g
   style="fill:#0a234a"
   id="g3192"
   transform="matrix(0.25,0,0,0.25,200,750)">

</g><g
   style="fill:#0a234a"
   id="g3198"
   transform="matrix(0.25,0,0,0.25,250,750)">

</g><g
   style="fill:#0a234a"
   id="g3204"
   transform="matrix(0.25,0,0,0.25,350,750)">

</g><g
   style="fill:#0a234a"
   id="g3210"
   transform="matrix(0.25,0,0,0.25,375,750)">

</g><g
   style="fill:#0a234a"
   id="g3216"
   transform="matrix(0.25,0,0,0.25,400,750)">

</g><g
   style="fill:#0a234a"
   id="g3222"
   transform="matrix(0.25,0,0,0.25,425,750)">

</g><g
   style="fill:#0a234a"
   id="g3228"
   transform="matrix(0.25,0,0,0.25,450,750)">

</g><g
   style="fill:#0a234a"
   id="g3234"
   transform="matrix(0.25,0,0,0.25,475,750)">

</g><g
   style="fill:#0a234a"
   id="g3240"
   transform="matrix(0.25,0,0,0.25,525,750)">

</g><g
   style="fill:#0a234a"
   id="g3246"
   transform="matrix(0.25,0,0,0.25,550,750)">

</g><g
   style="fill:#0a234a"
   id="g3252"
   transform="matrix(0.25,0,0,0.25,600,750)">

</g><g
   style="fill:#0a234a"
   id="g3258"
   transform="matrix(0.25,0,0,0.25,650,750)">

</g><g
   style="fill:#0a234a"
   id="g3264"
   transform="matrix(0.25,0,0,0.25,725,750)">

</g><g
   style="fill:#0a234a"
   id="g3270"
   transform="matrix(0.25,0,0,0.25,750,750)">

</g><g
   style="fill:#0a234a"
   id="g3276"
   transform="matrix(0.25,0,0,0.25,775,750)">

</g><g
   style="fill:#0a234a"
   id="g3282"
   transform="matrix(0.25,0,0,0.25,825,750)">

</g><g
   style="fill:#0a234a"
   id="g3288"
   transform="matrix(0.25,0,0,0.25,875,750)">

</g><g
   style="fill:#0a234a"
   id="g3294"
   transform="matrix(0.25,0,0,0.25,975,750)">

</g><g
   style="fill:#0a234a"
   id="g3300"
   transform="matrix(0.25,0,0,0.25,1000,750)">

</g><g
   style="fill:#0a234a"
   id="g3306"
   transform="matrix(0.25,0,0,0.25,1025,750)">

</g><g
   style="fill:#0a234a"
   id="g3312"
   transform="matrix(0.25,0,0,0.25,50,775)">

</g><g
   style="fill:#0a234a"
   id="g3318"
   transform="matrix(0.25,0,0,0.25,75,775)">

</g><g
   style="fill:#0a234a"
   id="g3324"
   transform="matrix(0.25,0,0,0.25,125,775)">

</g><g
   style="fill:#0a234a"
   id="g3330"
   transform="matrix(0.25,0,0,0.25,225,775)">

</g><g
   style="fill:#0a234a"
   id="g3336"
   transform="matrix(0.25,0,0,0.25,300,775)">

</g><g
   style="fill:#0a234a"
   id="g3342"
   transform="matrix(0.25,0,0,0.25,325,775)">

</g><g
   style="fill:#0a234a"
   id="g3348"
   transform="matrix(0.25,0,0,0.25,400,775)">

</g><g
   style="fill:#0a234a"
   id="g3354"
   transform="matrix(0.25,0,0,0.25,425,775)">

</g><g
   style="fill:#0a234a"
   id="g3360"
   transform="matrix(0.25,0,0,0.25,450,775)">

</g><g
   style="fill:#0a234a"
   id="g3366"
   transform="matrix(0.25,0,0,0.25,500,775)">

</g><g
   style="fill:#0a234a"
   id="g3372"
   transform="matrix(0.25,0,0,0.25,575,775)">

</g><g
   style="fill:#0a234a"
   id="g3378"
   transform="matrix(0.25,0,0,0.25,600,775)">

</g><g
   style="fill:#0a234a"
   id="g3384"
   transform="matrix(0.25,0,0,0.25,650,775)">

</g><g
   style="fill:#0a234a"
   id="g3390"
   transform="matrix(0.25,0,0,0.25,675,775)">

</g><g
   style="fill:#0a234a"
   id="g3396"
   transform="matrix(0.25,0,0,0.25,700,775)">

</g><g
   style="fill:#0a234a"
   id="g3402"
   transform="matrix(0.25,0,0,0.25,725,775)">

</g><g
   style="fill:#0a234a"
   id="g3408"
   transform="matrix(0.25,0,0,0.25,775,775)">

</g><g
   style="fill:#0a234a"
   id="g3414"
   transform="matrix(0.25,0,0,0.25,800,775)">

</g><g
   style="fill:#0a234a"
   id="g3420"
   transform="matrix(0.25,0,0,0.25,850,775)">

</g><g
   style="fill:#0a234a"
   id="g3426"
   transform="matrix(0.25,0,0,0.25,925,775)">

</g><g
   style="fill:#0a234a"
   id="g3432"
   transform="matrix(0.25,0,0,0.25,950,775)">

</g><g
   style="fill:#0a234a"
   id="g3438"
   transform="matrix(0.25,0,0,0.25,975,775)">

</g><g
   style="fill:#0a234a"
   id="g3444"
   transform="matrix(0.25,0,0,0.25,1000,775)">

</g><g
   style="fill:#0a234a"
   id="g3450"
   transform="matrix(0.25,0,0,0.25,1050,775)">

</g><g
   style="fill:#0a234a"
   id="g3456"
   transform="matrix(0.25,0,0,0.25,50,800)">

</g><g
   style="fill:#0a234a"
   id="g3462"
   transform="matrix(0.25,0,0,0.25,125,800)">

</g><g
   style="fill:#0a234a"
   id="g3468"
   transform="matrix(0.25,0,0,0.25,175,800)">

</g><g
   style="fill:#0a234a"
   id="g3474"
   transform="matrix(0.25,0,0,0.25,200,800)">

</g><g
   style="fill:#0a234a"
   id="g3480"
   transform="matrix(0.25,0,0,0.25,225,800)">

</g><g
   style="fill:#0a234a"
   id="g3486"
   transform="matrix(0.25,0,0,0.25,275,800)">

</g><g
   style="fill:#0a234a"
   id="g3492"
   transform="matrix(0.25,0,0,0.25,300,800)">

</g><g
   style="fill:#0a234a"
   id="g3498"
   transform="matrix(0.25,0,0,0.25,350,800)">

</g><g
   style="fill:#0a234a"
   id="g3504"
   transform="matrix(0.25,0,0,0.25,375,800)">

</g><g
   style="fill:#0a234a"
   id="g3510"
   transform="matrix(0.25,0,0,0.25,425,800)">

</g><g
   style="fill:#0a234a"
   id="g3516"
   transform="matrix(0.25,0,0,0.25,475,800)">

</g><g
   style="fill:#0a234a"
   id="g3522"
   transform="matrix(0.25,0,0,0.25,550,800)">

</g><g
   style="fill:#0a234a"
   id="g3528"
   transform="matrix(0.25,0,0,0.25,650,800)">

</g><g
   style="fill:#0a234a"
   id="g3534"
   transform="matrix(0.25,0,0,0.25,675,800)">

</g><g
   style="fill:#0a234a"
   id="g3540"
   transform="matrix(0.25,0,0,0.25,725,800)">

</g><g
   style="fill:#0a234a"
   id="g3546"
   transform="matrix(0.25,0,0,0.25,750,800)">

</g><g
   style="fill:#0a234a"
   id="g3552"
   transform="matrix(0.25,0,0,0.25,775,800)">

</g><g
   style="fill:#0a234a"
   id="g3558"
   transform="matrix(0.25,0,0,0.25,825,800)">

</g><g
   style="fill:#0a234a"
   id="g3564"
   transform="matrix(0.25,0,0,0.25,875,800)">

</g><g
   style="fill:#0a234a"
   id="g3570"
   transform="matrix(0.25,0,0,0.25,900,800)">

</g><g
   style="fill:#0a234a"
   id="g3576"
   transform="matrix(0.25,0,0,0.25,925,800)">

</g><g
   style="fill:#0a234a"
   id="g3582"
   transform="matrix(0.25,0,0,0.25,1000,800)">

</g><g
   style="fill:#0a234a"
   id="g3588"
   transform="matrix(0.25,0,0,0.25,50,825)">

</g><g
   style="fill:#0a234a"
   id="g3594"
   transform="matrix(0.25,0,0,0.25,100,825)">

</g><g
   style="fill:#0a234a"
   id="g3600"
   transform="matrix(0.25,0,0,0.25,225,825)">

</g><g
   style="fill:#0a234a"
   id="g3606"
   transform="matrix(0.25,0,0,0.25,250,825)">

</g><g
   style="fill:#0a234a"
   id="g3612"
   transform="matrix(0.25,0,0,0.25,275,825)">

</g><g
   style="fill:#0a234a"
   id="g3618"
   transform="matrix(0.25,0,0,0.25,300,825)">

</g><g
   style="fill:#0a234a"
   id="g3624"
   transform="matrix(0.25,0,0,0.25,350,825)">

</g><g
   style="fill:#0a234a"
   id="g3630"
   transform="matrix(0.25,0,0,0.25,425,825)">

</g><g
   style="fill:#0a234a"
   id="g3636"
   transform="matrix(0.25,0,0,0.25,550,825)">

</g><g
   style="fill:#0a234a"
   id="g3642"
   transform="matrix(0.25,0,0,0.25,650,825)">

</g><g
   style="fill:#0a234a"
   id="g3648"
   transform="matrix(0.25,0,0,0.25,700,825)">

</g><g
   style="fill:#0a234a"
   id="g3654"
   transform="matrix(0.25,0,0,0.25,725,825)">

</g><g
   style="fill:#0a234a"
   id="g3660"
   transform="matrix(0.25,0,0,0.25,825,825)">

</g><g
   style="fill:#0a234a"
   id="g3666"
   transform="matrix(0.25,0,0,0.25,850,825)">

</g><g
   style="fill:#0a234a"
   id="g3672"
   transform="matrix(0.25,0,0,0.25,875,825)">

</g><g
   style="fill:#0a234a"
   id="g3678"
   transform="matrix(0.25,0,0,0.25,900,825)">

</g><g
   style="fill:#0a234a"
   id="g3684"
   transform="matrix(0.25,0,0,0.25,925,825)">

</g><g
   style="fill:#0a234a"
   id="g3690"
   transform="matrix(0.25,0,0,0.25,950,825)">

</g><g
   style="fill:#0a234a"
   id="g3696"
   transform="matrix(0.25,0,0,0.25,975,825)">

</g><g
   style="fill:#0a234a"
   id="g3702"
   transform="matrix(0.25,0,0,0.25,1050,825)">

</g><g
   style="fill:#0a234a"
   id="g3708"
   transform="matrix(0.25,0,0,0.25,50,850)">

</g><g
   style="fill:#0a234a"
   id="g3714"
   transform="matrix(0.25,0,0,0.25,150,850)">

</g><g
   style="fill:#0a234a"
   id="g3720"
   transform="matrix(0.25,0,0,0.25,200,850)">

</g><g
   style="fill:#0a234a"
   id="g3726"
   transform="matrix(0.25,0,0,0.25,225,850)">

</g><g
   style="fill:#0a234a"
   id="g3732"
   transform="matrix(0.25,0,0,0.25,275,850)">

</g><g
   style="fill:#0a234a"
   id="g3738"
   transform="matrix(0.25,0,0,0.25,300,850)">

</g><g
   style="fill:#0a234a"
   id="g3744"
   transform="matrix(0.25,0,0,0.25,375,850)">

</g><g
   style="fill:#0a234a"
   id="g3750"
   transform="matrix(0.25,0,0,0.25,425,850)">

</g><g
   style="fill:#0a234a"
   id="g3756"
   transform="matrix(0.25,0,0,0.25,500,850)">

</g><g
   style="fill:#0a234a"
   id="g3762"
   transform="matrix(0.25,0,0,0.25,550,850)">

</g><g
   style="fill:#0a234a"
   id="g3768"
   transform="matrix(0.25,0,0,0.25,625,850)">

</g><g
   style="fill:#0a234a"
   id="g3774"
   transform="matrix(0.25,0,0,0.25,650,850)">

</g><g
   style="fill:#0a234a"
   id="g3780"
   transform="matrix(0.25,0,0,0.25,725,850)">

</g><g
   style="fill:#0a234a"
   id="g3786"
   transform="matrix(0.25,0,0,0.25,750,850)">

</g><g
   style="fill:#0a234a"
   id="g3792"
   transform="matrix(0.25,0,0,0.25,775,850)">

</g><g
   style="fill:#0a234a"
   id="g3798"
   transform="matrix(0.25,0,0,0.25,825,850)">

</g><g
   style="fill:#0a234a"
   id="g3804"
   transform="matrix(0.25,0,0,0.25,850,850)">

</g><g
   style="fill:#0a234a"
   id="g3810"
   transform="matrix(0.25,0,0,0.25,875,850)">

</g><g
   style="fill:#0a234a"
   id="g3816"
   transform="matrix(0.25,0,0,0.25,900,850)">

</g><g
   style="fill:#0a234a"
   id="g3822"
   transform="matrix(0.25,0,0,0.25,925,850)">

</g><g
   style="fill:#0a234a"
   id="g3828"
   transform="matrix(0.25,0,0,0.25,950,850)">

</g><g
   style="fill:#0a234a"
   id="g3834"
   transform="matrix(0.25,0,0,0.25,1000,850)">

</g><g
   style="fill:#0a234a"
   id="g3840"
   transform="matrix(0.25,0,0,0.25,1050,850)">

</g><g
   style="fill:#0a234a"
   id="g3846"
   transform="matrix(0.25,0,0,0.25,250,875)">

</g><g
   style="fill:#0a234a"
   id="g3852"
   transform="matrix(0.25,0,0,0.25,300,875)">

</g><g
   style="fill:#0a234a"
   id="g3858"
   transform="matrix(0.25,0,0,0.25,325,875)">

</g><g
   style="fill:#0a234a"
   id="g3864"
   transform="matrix(0.25,0,0,0.25,375,875)">

</g><g
   style="fill:#0a234a"
   id="g3870"
   transform="matrix(0.25,0,0,0.25,450,875)">

</g><g
   style="fill:#0a234a"
   id="g3876"
   transform="matrix(0.25,0,0,0.25,475,875)">

</g><g
   style="fill:#0a234a"
   id="g3882"
   transform="matrix(0.25,0,0,0.25,500,875)">

</g><g
   style="fill:#0a234a"
   id="g3888"
   transform="matrix(0.25,0,0,0.25,525,875)">

</g><g
   style="fill:#0a234a"
   id="g3894"
   transform="matrix(0.25,0,0,0.25,550,875)">

</g><g
   style="fill:#0a234a"
   id="g3900"
   transform="matrix(0.25,0,0,0.25,600,875)">

</g><g
   style="fill:#0a234a"
   id="g3906"
   transform="matrix(0.25,0,0,0.25,650,875)">

</g><g
   style="fill:#0a234a"
   id="g3912"
   transform="matrix(0.25,0,0,0.25,750,875)">

</g><g
   style="fill:#0a234a"
   id="g3918"
   transform="matrix(0.25,0,0,0.25,775,875)">

</g><g
   style="fill:#0a234a"
   id="g3924"
   transform="matrix(0.25,0,0,0.25,850,875)">

</g><g
   style="fill:#0a234a"
   id="g3930"
   transform="matrix(0.25,0,0,0.25,950,875)">

</g><g
   style="fill:#0a234a"
   id="g3936"
   transform="matrix(0.25,0,0,0.25,975,875)">

</g><g
   style="fill:#0a234a"
   id="g3942"
   transform="matrix(0.25,0,0,0.25,1025,875)">

</g><g
   style="fill:#0a234a"
   id="g3948"
   transform="matrix(0.25,0,0,0.25,1050,875)">

</g><g
   style="fill:#0a234a"
   id="g3954"
   transform="matrix(0.25,0,0,0.25,275,900)">

</g><g
   style="fill:#0a234a"
   id="g3960"
   transform="matrix(0.25,0,0,0.25,325,900)">

</g><g
   style="fill:#0a234a"
   id="g3966"
   transform="matrix(0.25,0,0,0.25,350,900)">

</g><g
   style="fill:#0a234a"
   id="g3972"
   transform="matrix(0.25,0,0,0.25,400,900)">

</g><g
   style="fill:#0a234a"
   id="g3978"
   transform="matrix(0.25,0,0,0.25,450,900)">

</g><g
   style="fill:#0a234a"
   id="g3984"
   transform="matrix(0.25,0,0,0.25,475,900)">

</g><g
   style="fill:#0a234a"
   id="g3990"
   transform="matrix(0.25,0,0,0.25,500,900)">

</g><g
   style="fill:#0a234a"
   id="g3996"
   transform="matrix(0.25,0,0,0.25,575,900)">

</g><g
   style="fill:#0a234a"
   id="g4002"
   transform="matrix(0.25,0,0,0.25,625,900)">

</g><g
   style="fill:#0a234a"
   id="g4008"
   transform="matrix(0.25,0,0,0.25,650,900)">

</g><g
   style="fill:#0a234a"
   id="g4014"
   transform="matrix(0.25,0,0,0.25,675,900)">

</g><g
   style="fill:#0a234a"
   id="g4020"
   transform="matrix(0.25,0,0,0.25,725,900)">

</g><g
   style="fill:#0a234a"
   id="g4026"
   transform="matrix(0.25,0,0,0.25,750,900)">

</g><g
   style="fill:#0a234a"
   id="g4032"
   transform="matrix(0.25,0,0,0.25,775,900)">

</g><g
   style="fill:#0a234a"
   id="g4038"
   transform="matrix(0.25,0,0,0.25,850,900)">

</g><g
   style="fill:#0a234a"
   id="g4044"
   transform="matrix(0.25,0,0,0.25,900,900)">

</g><g
   style="fill:#0a234a"
   id="g4050"
   transform="matrix(0.25,0,0,0.25,950,900)">

</g><g
   style="fill:#0a234a"
   id="g4056"
   transform="matrix(0.25,0,0,0.25,975,900)">

</g><g
   style="fill:#0a234a"
   id="g4062"
   transform="matrix(0.25,0,0,0.25,300,925)">

</g><g
   style="fill:#0a234a"
   id="g4068"
   transform="matrix(0.25,0,0,0.25,375,925)">

</g><g
   style="fill:#0a234a"
   id="g4074"
   transform="matrix(0.25,0,0,0.25,525,925)">

</g><g
   style="fill:#0a234a"
   id="g4080"
   transform="matrix(0.25,0,0,0.25,550,925)">

</g><g
   style="fill:#0a234a"
   id="g4086"
   transform="matrix(0.25,0,0,0.25,675,925)">

</g><g
   style="fill:#0a234a"
   id="g4092"
   transform="matrix(0.25,0,0,0.25,700,925)">

</g><g
   style="fill:#0a234a"
   id="g4098"
   transform="matrix(0.25,0,0,0.25,775,925)">

</g><g
   style="fill:#0a234a"
   id="g4104"
   transform="matrix(0.25,0,0,0.25,800,925)">

</g><g
   style="fill:#0a234a"
   id="g4110"
   transform="matrix(0.25,0,0,0.25,825,925)">

</g><g
   style="fill:#0a234a"
   id="g4116"
   transform="matrix(0.25,0,0,0.25,850,925)">

</g><g
   style="fill:#0a234a"
   id="g4122"
   transform="matrix(0.25,0,0,0.25,950,925)">

</g><g
   style="fill:#0a234a"
   id="g4128"
   transform="matrix(0.25,0,0,0.25,975,925)">

</g><g
   style="fill:#0a234a"
   id="g4134"
   transform="matrix(0.25,0,0,0.25,1025,925)">

</g><g
   style="fill:#0a234a"
   id="g4140"
   transform="matrix(0.25,0,0,0.25,250,950)">

</g><g
   style="fill:#0a234a"
   id="g4146"
   transform="matrix(0.25,0,0,0.25,275,950)">

</g><g
   style="fill:#0a234a"
   id="g4152"
   transform="matrix(0.25,0,0,0.25,300,950)">

</g><g
   style="fill:#0a234a"
   id="g4158"
   transform="matrix(0.25,0,0,0.25,325,950)">

</g><g
   style="fill:#0a234a"
   id="g4164"
   transform="matrix(0.25,0,0,0.25,350,950)">

</g><g
   style="fill:#0a234a"
   id="g4170"
   transform="matrix(0.25,0,0,0.25,375,950)">

</g><g
   style="fill:#0a234a"
   id="g4176"
   transform="matrix(0.25,0,0,0.25,400,950)">

</g><g
   style="fill:#0a234a"
   id="g4182"
   transform="matrix(0.25,0,0,0.25,475,950)">

</g><g
   style="fill:#0a234a"
   id="g4188"
   transform="matrix(0.25,0,0,0.25,550,950)">

</g><g
   style="fill:#0a234a"
   id="g4194"
   transform="matrix(0.25,0,0,0.25,675,950)">

</g><g
   style="fill:#0a234a"
   id="g4200"
   transform="matrix(0.25,0,0,0.25,700,950)">

</g><g
   style="fill:#0a234a"
   id="g4206"
   transform="matrix(0.25,0,0,0.25,725,950)">

</g><g
   style="fill:#0a234a"
   id="g4212"
   transform="matrix(0.25,0,0,0.25,850,950)">

</g><g
   style="fill:#0a234a"
   id="g4218"
   transform="matrix(0.25,0,0,0.25,875,950)">

</g><g
   style="fill:#0a234a"
   id="g4224"
   transform="matrix(0.25,0,0,0.25,900,950)">

</g><g
   style="fill:#0a234a"
   id="g4230"
   transform="matrix(0.25,0,0,0.25,925,950)">

</g><g
   style="fill:#0a234a"
   id="g4236"
   transform="matrix(0.25,0,0,0.25,950,950)">

</g><g
   style="fill:#0a234a"
   id="g4242"
   transform="matrix(0.25,0,0,0.25,975,950)">

</g><g
   style="fill:#0a234a"
   id="g4248"
   transform="matrix(0.25,0,0,0.25,1000,950)">

</g><g
   style="fill:#0a234a"
   id="g4254"
   transform="matrix(0.25,0,0,0.25,1025,950)">

</g><g
   style="fill:#0a234a"
   id="g4260"
   transform="matrix(0.25,0,0,0.25,250,975)">

</g><g
   style="fill:#0a234a"
   id="g4266"
   transform="matrix(0.25,0,0,0.25,275,975)">

</g><g
   style="fill:#0a234a"
   id="g4272"
   transform="matrix(0.25,0,0,0.25,325,975)">

</g><g
   style="fill:#0a234a"
   id="g4278"
   transform="matrix(0.25,0,0,0.25,400,975)">

</g><g
   style="fill:#0a234a"
   id="g4284"
   transform="matrix(0.25,0,0,0.25,425,975)">

</g><g
   style="fill:#0a234a"
   id="g4290"
   transform="matrix(0.25,0,0,0.25,450,975)">

</g><g
   style="fill:#0a234a"
   id="g4296"
   transform="matrix(0.25,0,0,0.25,500,975)">

</g><g
   style="fill:#0a234a"
   id="g4302"
   transform="matrix(0.25,0,0,0.25,525,975)">

</g><g
   style="fill:#0a234a"
   id="g4308"
   transform="matrix(0.25,0,0,0.25,625,975)">

</g><g
   style="fill:#0a234a"
   id="g4314"
   transform="matrix(0.25,0,0,0.25,675,975)">

</g><g
   style="fill:#0a234a"
   id="g4320"
   transform="matrix(0.25,0,0,0.25,800,975)">

</g><g
   style="fill:#0a234a"
   id="g4326"
   transform="matrix(0.25,0,0,0.25,825,975)">

</g><g
   style="fill:#0a234a"
   id="g4332"
   transform="matrix(0.25,0,0,0.25,875,975)">

</g><g
   style="fill:#0a234a"
   id="g4338"
   transform="matrix(0.25,0,0,0.25,925,975)">

</g><g
   style="fill:#0a234a"
   id="g4344"
   transform="matrix(0.25,0,0,0.25,975,975)">

</g><g
   style="fill:#0a234a"
   id="g4350"
   transform="matrix(0.25,0,0,0.25,1050,975)">

</g><g
   style="fill:#0a234a"
   id="g4356"
   transform="matrix(0.25,0,0,0.25,250,1000)">

</g><g
   style="fill:#0a234a"
   id="g4362"
   transform="matrix(0.25,0,0,0.25,275,1000)">

</g><g
   style="fill:#0a234a"
   id="g4368"
   transform="matrix(0.25,0,0,0.25,300,1000)">

</g><g
   style="fill:#0a234a"
   id="g4374"
   transform="matrix(0.25,0,0,0.25,325,1000)">

</g><g
   style="fill:#0a234a"
   id="g4380"
   transform="matrix(0.25,0,0,0.25,375,1000)">

</g><g
   style="fill:#0a234a"
   id="g4386"
   transform="matrix(0.25,0,0,0.25,475,1000)">

</g><g
   style="fill:#0a234a"
   id="g4392"
   transform="matrix(0.25,0,0,0.25,600,1000)">

</g><g
   style="fill:#0a234a"
   id="g4398"
   transform="matrix(0.25,0,0,0.25,650,1000)">

</g><g
   style="fill:#0a234a"
   id="g4404"
   transform="matrix(0.25,0,0,0.25,675,1000)">

</g><g
   style="fill:#0a234a"
   id="g4410"
   transform="matrix(0.25,0,0,0.25,700,1000)">

</g><g
   style="fill:#0a234a"
   id="g4416"
   transform="matrix(0.25,0,0,0.25,725,1000)">

</g><g
   style="fill:#0a234a"
   id="g4422"
   transform="matrix(0.25,0,0,0.25,750,1000)">

</g><g
   style="fill:#0a234a"
   id="g4428"
   transform="matrix(0.25,0,0,0.25,825,1000)">

</g><g
   style="fill:#0a234a"
   id="g4434"
   transform="matrix(0.25,0,0,0.25,875,1000)">

</g><g
   style="fill:#0a234a"
   id="g4440"
   transform="matrix(0.25,0,0,0.25,900,1000)">

</g><g
   style="fill:#0a234a"
   id="g4446"
   transform="matrix(0.25,0,0,0.25,925,1000)">

</g><g
   style="fill:#0a234a"
   id="g4452"
   transform="matrix(0.25,0,0,0.25,950,1000)">

</g><g
   style="fill:#0a234a"
   id="g4458"
   transform="matrix(0.25,0,0,0.25,1025,1000)">

</g><g
   style="fill:#0a234a"
   id="g4464"
   transform="matrix(0.25,0,0,0.25,275,1025)">

</g><g
   style="fill:#0a234a"
   id="g4470"
   transform="matrix(0.25,0,0,0.25,325,1025)">

</g><g
   style="fill:#0a234a"
   id="g4476"
   transform="matrix(0.25,0,0,0.25,350,1025)">

</g><g
   style="fill:#0a234a"
   id="g4482"
   transform="matrix(0.25,0,0,0.25,375,1025)">

</g><g
   style="fill:#0a234a"
   id="g4488"
   transform="matrix(0.25,0,0,0.25,400,1025)">

</g><g
   style="fill:#0a234a"
   id="g4494"
   transform="matrix(0.25,0,0,0.25,425,1025)">

</g><g
   style="fill:#0a234a"
   id="g4500"
   transform="matrix(0.25,0,0,0.25,450,1025)">

</g><g
   style="fill:#0a234a"
   id="g4506"
   transform="matrix(0.25,0,0,0.25,475,1025)">

</g><g
   style="fill:#0a234a"
   id="g4512"
   transform="matrix(0.25,0,0,0.25,500,1025)">

</g><g
   style="fill:#0a234a"
   id="g4518"
   transform="matrix(0.25,0,0,0.25,550,1025)">

</g><g
   style="fill:#0a234a"
   id="g4524"
   transform="matrix(0.25,0,0,0.25,575,1025)">

</g><g
   style="fill:#0a234a"
   id="g4530"
   transform="matrix(0.25,0,0,0.25,650,1025)">

</g><g
   style="fill:#0a234a"
   id="g4536"
   transform="matrix(0.25,0,0,0.25,675,1025)">

</g><g
   style="fill:#0a234a"
   id="g4542"
   transform="matrix(0.25,0,0,0.25,750,1025)">

</g><g
   style="fill:#0a234a"
   id="g4548"
   transform="matrix(0.25,0,0,0.25,800,1025)">

</g><g
   style="fill:#0a234a"
   id="g4554"
   transform="matrix(0.25,0,0,0.25,825,1025)">

</g><g
   style="fill:#0a234a"
   id="g4560"
   transform="matrix(0.25,0,0,0.25,850,1025)">

</g><g
   style="fill:#0a234a"
   id="g4566"
   transform="matrix(0.25,0,0,0.25,875,1025)">

</g><g
   style="fill:#0a234a"
   id="g4572"
   transform="matrix(0.25,0,0,0.25,900,1025)">

</g><g
   style="fill:#0a234a"
   id="g4578"
   transform="matrix(0.25,0,0,0.25,950,1025)">

</g><g
   style="fill:#0a234a"
   id="g4584"
   transform="matrix(0.25,0,0,0.25,975,1025)">

</g><g
   style="fill:#0a234a"
   id="g4590"
   transform="matrix(0.25,0,0,0.25,1025,1025)">

</g><g
   style="fill:#0a234a"
   id="g4596"
   transform="matrix(0.25,0,0,0.25,275,1050)">

</g><g
   style="fill:#0a234a"
   id="g4602"
   transform="matrix(0.25,0,0,0.25,300,1050)">

</g><g
   style="fill:#0a234a"
   id="g4608"
   transform="matrix(0.25,0,0,0.25,325,1050)">

</g><g
   style="fill:#0a234a"
   id="g4614"
   transform="matrix(0.25,0,0,0.25,400,1050)">

</g><g
   style="fill:#0a234a"
   id="g4620"
   transform="matrix(0.25,0,0,0.25,450,1050)">

</g><g
   style="fill:#0a234a"
   id="g4626"
   transform="matrix(0.25,0,0,0.25,500,1050)">

</g><g
   style="fill:#0a234a"
   id="g4632"
   transform="matrix(0.25,0,0,0.25,525,1050)">

</g><g
   style="fill:#0a234a"
   id="g4638"
   transform="matrix(0.25,0,0,0.25,550,1050)">

</g><g
   style="fill:#0a234a"
   id="g4644"
   transform="matrix(0.25,0,0,0.25,575,1050)">

</g><g
   style="fill:#0a234a"
   id="g4650"
   transform="matrix(0.25,0,0,0.25,600,1050)">

</g><g
   style="fill:#0a234a"
   id="g4656"
   transform="matrix(0.25,0,0,0.25,650,1050)">

</g><g
   style="fill:#0a234a"
   id="g4662"
   transform="matrix(0.25,0,0,0.25,675,1050)">

</g><g
   style="fill:#0a234a"
   id="g4668"
   transform="matrix(0.25,0,0,0.25,750,1050)">

</g><g
   style="fill:#0a234a"
   id="g4674"
   transform="matrix(0.25,0,0,0.25,775,1050)">

</g><g
   style="fill:#0a234a"
   id="g4680"
   transform="matrix(0.25,0,0,0.25,825,1050)">

</g><g
   style="fill:#0a234a"
   id="g4686"
   transform="matrix(0.25,0,0,0.25,875,1050)">

</g><g
   style="fill:#0a234a"
   id="g4692"
   transform="matrix(0.25,0,0,0.25,925,1050)">

</g><g
   style="fill:#0a234a"
   id="g4698"
   transform="matrix(0.25,0,0,0.25,950,1050)">

</g><g
   style="fill:#0a234a"
   id="g4704"
   transform="matrix(0.25,0,0,0.25,1000,1050)">

</g><g
   style="fill:#0a234a"
   id="g4740"
   transform="matrix(0.75,0,0,0.75,100,100)">

</g><g
   style="fill:#0a234a"
   id="g4746"
   transform="matrix(0.75,0,0,0.75,950,100)">

</g><g
   style="fill:#0a234a"
   id="g4752"
   transform="matrix(0.75,0,0,0.75,100,950)">

</g></svg>
